<svg id="Layer_1" data-name="Layer 1" xmlns="http://www.w3.org/2000/svg" xmlns:xlink="http://www.w3.org/1999/xlink" viewBox="0 0 900 600"><defs><style>.cls-1{fill:#c69c6d;}.cls-2{opacity:0.4;}.cls-3{fill:#42210b;}.cls-4{fill:#8c6239;}.cls-17,.cls-19,.cls-22,.cls-36,.cls-37,.cls-38,.cls-39,.cls-40,.cls-5,.cls-6,.cls-9{stroke:#000;}.cls-11,.cls-12,.cls-13,.cls-14,.cls-15,.cls-16,.cls-17,.cls-19,.cls-22,.cls-35,.cls-36,.cls-37,.cls-38,.cls-39,.cls-40,.cls-5,.cls-6,.cls-7,.cls-8,.cls-9{stroke-miterlimit:10;}.cls-5{fill:url(#radial-gradient);}.cls-6{fill:url(#linear-gradient);}.cls-7,.cls-8{fill:#301709;stroke:#513223;}.cls-7{stroke-width:1.05px;}.cls-9{stroke-width:0.97px;fill:url(#linear-gradient-2);}.cls-10{fill:url(#linear-gradient-3);}.cls-11,.cls-12,.cls-13,.cls-14,.cls-15,.cls-16,.cls-19,.cls-35,.cls-39{fill:none;}.cls-11,.cls-12,.cls-13,.cls-14,.cls-15,.cls-16{stroke:#8e8a8a;}.cls-11{stroke-width:4px;}.cls-12{stroke-width:4.1px;}.cls-13{stroke-width:2.99px;}.cls-14{stroke-width:3.07px;}.cls-15{stroke-width:2.33px;}.cls-16{stroke-width:2.39px;}.cls-17,.cls-22{stroke-width:1.03px;}.cls-17{fill:url(#linear-gradient-4);}.cls-18,.cls-19,.cls-20,.cls-21,.cls-23,.cls-27,.cls-28,.cls-34{isolation:isolate;}.cls-18,.cls-19{font-size:43.58px;}.cls-18,.cls-19,.cls-21,.cls-23,.cls-27,.cls-28,.cls-34{font-family:TimesNewRomanPSMT, Times New Roman;}.cls-19{stroke-width:0.25px;}.cls-21{font-size:18px;}.cls-22{fill:url(#linear-gradient-5);}.cls-23{font-size:36px;}.cls-24{letter-spacing:-0.02em;}.cls-25{letter-spacing:-0.07em;}.cls-26{letter-spacing:-0.06em;}.cls-27{font-size:14px;}.cls-28{font-size:15px;}.cls-29{letter-spacing:-0.02em;}.cls-30{letter-spacing:-0.08em;}.cls-31{letter-spacing:0em;}.cls-32{letter-spacing:-0.06em;}.cls-33{letter-spacing:0em;}.cls-34{font-size:12.95px;}.cls-35{stroke:#ede2e2;stroke-width:0.5px;}.cls-36{fill:#f9cd50;}.cls-37{fill:#d3d1cd;stroke-width:1.11px;}.cls-38{fill:#e094ff;stroke-width:1.14px;}.cls-39{stroke-width:0.75px;}.cls-40{fill:#c7b299;stroke-width:0.91px;}</style><radialGradient id="radial-gradient" cx="97.2" cy="502.1" r="95.9" gradientTransform="matrix(1, 0, 0, -1, 0, 600)" gradientUnits="userSpaceOnUse"><stop offset="0"/><stop offset="0.08" stop-color="#1d1a19"/><stop offset="0.24" stop-color="#554e4a"/><stop offset="0.38" stop-color="#817771"/><stop offset="0.52" stop-color="#a1948d"/><stop offset="0.63" stop-color="#b4a69e"/><stop offset="0.71" stop-color="#bbaca4"/><stop offset="0.75" stop-color="#cbbbb2"/><stop offset="0.83" stop-color="#dccbc2"/><stop offset="0.91" stop-color="#e7d5cb"/><stop offset="1" stop-color="#ead8ce"/></radialGradient><linearGradient id="linear-gradient" x1="28.6" y1="502.2" x2="167.8" y2="502.2" gradientTransform="matrix(1, 0, 0, -1, 0, 600)" gradientUnits="userSpaceOnUse"><stop offset="0.07" stop-color="#ead8ce"/><stop offset="0.69" stop-color="#bbaca4"/><stop offset="0.81" stop-color="#baaba3"/><stop offset="0.88" stop-color="#b8a9a1"/><stop offset="0.91" stop-color="#b1a39b"/><stop offset="0.93" stop-color="#a69891"/><stop offset="0.95" stop-color="#958982"/><stop offset="0.96" stop-color="#7f746f"/><stop offset="0.97" stop-color="#635b57"/><stop offset="0.98" stop-color="#433e3b"/><stop offset="0.99" stop-color="#1f1c1b"/><stop offset="1"/></linearGradient><linearGradient id="linear-gradient-2" x1="167.22" y1="502.02" x2="192.02" y2="502.02" gradientTransform="matrix(-1, 0, 0, 1, 359.22, -404.12)" xlink:href="#linear-gradient"/><linearGradient id="linear-gradient-3" x1="108.96" y1="544.1" x2="123.43" y2="544.1" gradientTransform="matrix(1, -0.07, -0.07, -1, 41.01, 607.17)" gradientUnits="userSpaceOnUse"><stop offset="0.07" stop-color="#fff"/><stop offset="0.81" stop-color="#baaba3"/><stop offset="0.88" stop-color="#b8a9a1"/><stop offset="0.91" stop-color="#b1a39b"/><stop offset="0.93" stop-color="#a69891"/><stop offset="0.95" stop-color="#958982"/><stop offset="0.96" stop-color="#7f746f"/><stop offset="0.97" stop-color="#635b57"/><stop offset="0.98" stop-color="#433e3b"/><stop offset="0.99" stop-color="#1f1c1b"/><stop offset="1"/></linearGradient><linearGradient id="linear-gradient-4" x1="533.8" y1="384.3" x2="875.7" y2="384.3" gradientTransform="matrix(1, 0, 0, -1, 0, 600)" gradientUnits="userSpaceOnUse"><stop offset="0"/><stop offset="0.01" stop-color="#1d1a19"/><stop offset="0.03" stop-color="#554e4a"/><stop offset="0.05" stop-color="#817771"/><stop offset="0.06" stop-color="#a1948d"/><stop offset="0.08" stop-color="#b4a69e"/><stop offset="0.09" stop-color="#bbaca4"/><stop offset="0.12" stop-color="#c1b4ac"/><stop offset="0.22" stop-color="#d5cbc7"/><stop offset="0.34" stop-color="#e4dedb"/><stop offset="0.47" stop-color="#efebea"/><stop offset="0.63" stop-color="#f5f3f2"/><stop offset="0.89" stop-color="#f7f5f5"/><stop offset="0.95" stop-color="#f6f4f3"/><stop offset="0.97" stop-color="#f4efec"/><stop offset="0.99" stop-color="#f0e6e1"/><stop offset="1" stop-color="#ebd9d0"/><stop offset="1" stop-color="#ead8ce"/></linearGradient><linearGradient id="linear-gradient-5" x1="502.7" y1="297.1" x2="928.3" y2="297.1" xlink:href="#linear-gradient-4"/></defs><title>Artboard 1</title><path class="cls-1" d="M-2,608s0-23-.1-60.2V531.1c-1.1-27.4-1.1-54.5-.1-81.1V438.6c-.2-88.3-.3-195.6-.4-282.1V143.1C-3.7,109.2-3.8,77-2.8,43.6V-1.5s20,0,54.2-.1H73.5c17,.6,34.8.6,53.3-.1h30.6C295-2,496-2.3,656.5-2.5h20.6c55.9-2.8,114.6-1.2,170-.2h23.4c28.3,0,44.6-.1,44.6-.1s.4,257.5.6,437.8v13.7a415.21,415.21,0,0,0,.1,51.1v11.7c.1,57.1.1,95.2.1,95.2s-127.1.2-286.7.4H611.3c-73.8-6-150.3-9.3-224.7.3-6.3.1-12.5.1-18.7.1-68.4.1-134.1.2-190.6.3H159a281.88,281.88,0,0,1-34.4,0H93.5C34.7,607.9-2,608-2,608Z"/><g class="cls-2"><path class="cls-3" d="M660.7,462.9c-12,.1-24.9.1-38.7.2-6.9,0-13.9.1-21.2.1-78.3-10.4-158.2-11.4-235.4.8-9.9.4-19.9.5-30,.5-30.4.1-61.6.3-93.3.5-5.5,0-11,.1-16.5.1-67.2.6-134.6-1.8-201.9,1.3,64.8-4.5,132.2-3.4,196.3-2.5l28.2-.3c28.2-.3,56.3-.6,84.5-1,9.4-.1,18.8-.2,28.1-.6,74.4-11.4,151.7-14.6,225.4-2.7,9.5.4,18.9.3,28.3.2,28.2-.3,56.4-.5,84.7-.8,65.1-.6,133,.8,199.7,1.3C858,460.4,817.1,460.9,660.7,462.9Z"/><path class="cls-3" d="M532.5,65.7C613.7,64.7,696,56,778.3,57c8.2.4,16.5.9,24.7,1.6,16.5,1.3,33,3.1,49.4,5.5-17-1.9-33.9-2.9-50.9-3.4-8.5-.3-17-.4-25.4-.4-70,1.3-137.3,12.7-207.2,10.2-17.5-1.3-32.4,5.7-50.9,6-8.3.8-16.6,1.2-24.9,1.4-41.4,1.1-82.4-4.1-123.6-10.4-7.3-1.1-14.7-2.3-22-3.5-9.2-.4-18.5-.8-27.8-1.4,7.4.3,14.9.5,22.3.5,7.1.2,14.1.7,21.2,1.4,49.6,4.7,100,17.6,151,4.4C520.1,67.8,526.2,66.8,532.5,65.7Z"/><path class="cls-3" d="M273.3,184.4c15.9-4.3,33.4-5.7,50.8-5.8,6.9.5,13.6,1.1,20.3,1.9,45.4,5.6,90.4,15.1,137.8,13.5-52.4,4.4-104.8-6.4-157.6-5.3-6.2,0-12.3.2-18.5.3-30.8.9-61.4,3.4-93.3,7.2-8.2-.1-16.4-.1-24.6-.2-57.4-.5-114.6-1.1-172-1.5,51-.6,102.1-1.1,168-1.8l29.2-.3c15.9-.8,30.9-.9,44.9-4.7Q265.65,186.05,273.3,184.4Z"/><path class="cls-3" d="M615.6,35.1c-24.5-2.1-51.9-.6-77.4.4-8.1.5-16.1.9-24.2,1.3-48.4,1.9-97,.3-145.7-3.6,52.4,2.7,103.5,1.2,154.1-1.2,7.2-.4,14.4-.7,21.6-1.1,69.5-.7,139.3-9.3,208.7-8,7.6.2,15.2.5,22.9.9q34.35,1.65,69.1,5.8c-26.2-1.4-52-2.9-77.8-3.5-8.6-.2-17.1-.4-25.7-.3-35.4,1.3-70.3,2.8-103.6,8.4C630.1,34.6,622.7,35,615.6,35.1Z"/><path class="cls-3" d="M534.6,261.7c-17.3-2.9-34.7-4.2-51.9-6.3-8.6-.8-17.3-1.4-25.9-2-60.5-4.1-120.3-6.4-181.3,3.4-6.1.7-12.3,1.5-18.5,2.3-12.4,1.7-24.9,3.5-37.3,4.2,12.5-.8,24.9-2.9,37.3-4.9,6.2-1,12.4-2,18.5-2.7,59.2-10,118.5-9.2,178.2-5.4,8.5.5,17,1.1,25.6,1.8,78,14.5,160.3,11.4,239.9,2.9l23.8-.9h26.4c26.4,0,52.8.1,79.2.1l-78.1.9-26,.3c-7.9-.2-15.8-.1-23.6.1-53.9,2.3-106.2,19.1-161.3,9.3C551.3,263.9,543,262.8,534.6,261.7Z"/><path class="cls-3" d="M589.2,43.2c-15.5,2.3-33-.3-46.9,1.9-7.8.3-15.7.7-23.5,1.1-54.8,2.3-109.3,1.9-164.6-4.5-8,0-16.1,0-24.1-.1,8.9-.1,17.8-.2,26.7-.2,43.9,0,86.3,9.4,133.7,5q11.7-1.35,22.8-2.7c7.5-.9,14.8-1.7,22.1-2.3,78.1-.2,155.4-7.5,232.4-9.5,8,.2,16,.5,24,1,16,1,32,2.5,47.9,4.9-22.5-2.8-45.1-4.3-67.9-4.9-7.6-.2-15.2-.3-22.8-.2-45.6,2.5-93,5.5-137.6,10.7C603.8,43.5,596.4,43.4,589.2,43.2Z"/><path class="cls-3" d="M282,197.9a178.83,178.83,0,0,1,20.4-2.9c62.5-.5,124.9,10.3,188.2,8.2,6.6,0,13.2,0,19.8.1h19.7c6.6,0,13.2,0,19.7.1-6.6.1-13.2.1-19.8.2s-13.2.1-19.8.2-13.2.1-19.8.2c-63,1.2-123-6.8-184.7-3.5-6.6.3-13.3.7-20,1.1-8.8.5-17.5,1.1-26.4,1.8s-17.7,1.6-26.7,2.6c-8.7.1-17.5.1-26.3.2-61.7,0-123.3-.2-185-.2q92.1-1,184.5-2.2c8.8-.1,17.6-.2,26.3-.5s17.2-1,25.4-1.9C265.9,200.3,274,199.1,282,197.9Z"/><path class="cls-3" d="M475.9,352.2c-68.7-5.3-138.6-14.7-208.4-1.9,74.8-15.6,149.6-3.5,226.8-1.1,8.1-.2,16.3-.3,24.6-.2,57.8.4,118.1,5.9,172.6-7.7-62.3,15.5-129.7,8.9-195.5,10.6Q485.8,352.2,475.9,352.2Z"/><path class="cls-3" d="M884.5,179.6c-9.4,0-18.9-.1-28.3-.2-85.6-13.9-167.9-10.8-254.8-1-9.4,0-18.9-.1-28.3-.1q-42.45-.15-84.9-.4c33-.6,66.3-1.3,99.5-2l24.9-.6c83.2-16.3,165.5-14,247.5,3.2q12.3.75,24.6,1.2Z"/><path class="cls-3" d="M663.7,187.5c57-12.2,116.9-4.2,176.8.9,7.4.2,14.8.2,22.1.1s14.7-.1,22.1-.2c-8.2.4-16.4.7-24.6,1.1s-16.3.6-24.5.6c-60.1-1.2-119.9-6.5-179-2.2Z"/><path class="cls-3" d="M210.3,125.3c-27.8,2.3-52.7,1-80.6,1.8-6.7-.1-13.5-.1-20.2-.2-26.9-.4-53.7-.9-79.9-.8,27.4.6,54.3.1,81.1-.6,6.7-.2,13.4-.4,20.2-.5,66.6-2.9,131.5-10.1,198.9-7.9,7.4.1,14.9.2,22.3.5a623.4,623.4,0,0,1,89,9.3c-26.2-3-52.4-5.8-78.6-7.4-8.7-.5-17.5-1-26.2-1.2-34.1-.9-71.5-2.1-105.1,5.7C224.4,124.5,217.4,125,210.3,125.3Z"/><path class="cls-3" d="M429,160.1c-55.1-9.4-115.1-28.5-169.9-7.5,27.4-11.2,59.8-14.1,94.7-10.1,37.4,5.3,69.9,14.9,107.3,13.5,7.5-.1,14.9-.2,22.4-.4,27.2-.4,62.6,1.7,94.3,2.6-25.9.6-51.7,1.3-76.6,1.9l-24.6.6c-8.1.2-16,.4-23.9.4S437,160.8,429,160.1Z"/><path class="cls-3" d="M256.3,447.2c-7.5,0-15.1-.1-22.6-.1-55.4.4-107.9-11.8-162.7-6,57.3-5.8,112.3,3.6,169.2,3.1,8.1-.1,16.1-.1,24.1-.1q35.4-.15,70.8,0c7.9,0,15.7,0,23.6-.1,31.5-.2,61.4-7.2,93.9-8.8-32.4,2.9-62.3,8.6-95.7,10.6-8.1.3-16.3.4-24.5.5C307.6,446.5,282.3,446.9,256.3,447.2Z"/><path class="cls-3" d="M208.5,211.5c7.9,0,15.8.1,23.7.1,6.2.1,12.5,0,18.8-.3s12.7-.5,19.1-.9c6.1-.7,12.3-1.2,18.7-1.6,18.8-.3,36.3-3.1,56.2-1.9-22.4.1-47.4,4.4-69.8,5-6,.5-11.9.9-17.8,1.2s-11.7.6-17.4.7c-40.4,1.1-77.9,2.7-116.7.8-8.6,0-17.1-.1-25.7-.1-25.7-.2-51.5-.4-77.2-.5,31.2-.4,62.3-.9,93.6-1.3l47.1-.6C176.9,211.9,192.6,211.8,208.5,211.5Z"/><path class="cls-3" d="M587.9,7c-3.3-.1-7.9-.2-13.4-.3s-11.8-.2-18.8-.4-14.5-.3-22.4-.4-16.1-.3-24.2-.4c6.2-.2,12.3-.4,18.5-.5L546,4.4c6.1-.2,12.3-.4,18.4-.5s12.3-.3,18.5-.5c35.5-.8,68-1,102.8-2.2L706.5.9c34.6-.2,68.9.5,103.2,1.2-28.7-.6-56.8-.4-84.8.3l-21,.6c-30.6-.7-58,5-89.1,3.6C606.1,6.7,597.1,6.8,587.9,7Z"/><path class="cls-3" d="M161.1,98.1c46.1-10.6,96-2.6,143.5,0-64.9-8-127.2,2-192.8,8.2-7.5.2-15,.2-22.5.2a661.94,661.94,0,0,1-67.4-3.8,529.65,529.65,0,0,0,58.7,2.4c6.5-.1,12.9-.2,19.5-.4,12.4-.2,27.4-1.6,39.6-2.8C147,100.7,154.1,99.4,161.1,98.1Z"/><path class="cls-3" d="M633.7,376.3c-26.7,0-54.2.1-80.4-.7-5.5,0-10.9-.1-16.1-.1l-30.8-.3c6.1-.1,12.2-.3,18.2-.4s12.1-.3,18.2-.5c44.3-.7,91.7-.9,133.1-8.1,6.3-1.3,12.5-2.7,18.8-4,18.9-4.1,38.2-8,59.4-8.8-37.4,4.3-64.8,18.3-102,21.6A171.1,171.1,0,0,1,633.7,376.3Z"/><path class="cls-3" d="M633.7,60.4c-35,3-70-5.1-105.2,1.6-5.1.7-10.3,1.4-15.4,2.2,6.2-.7,12.5-1.7,18.7-2.7a95.85,95.85,0,0,1,36.9-3.6c64.9,2.5,127.2-11.7,192-10.6-34.9.2-67.3,5.9-103,10.5C649.9,58.9,641.9,59.8,633.7,60.4Z"/><path class="cls-3" d="M223.7,83.3C187.2,82,154.9,91.8,120,96.1c67.3-19.7,139.6-17.3,211.5-8,6.4.3,12.8.4,19.2.6-6.3,0-12.7.1-19.1,0-27,1-57-4.4-83.8-4.9C240,83.5,232,83.3,223.7,83.3Z"/><path class="cls-3" d="M455.9,235.9c-33.5-3-65.9-7-100.8-4,34.3-3.6,68.6-.8,102.7,1.5,6.8.5,13.6.9,20.4,1.3,41.6,2,86.5,4.5,128.9,5.7-42.4.2-82.3-1-125.5-3.1C473,236.9,464.4,236.5,455.9,235.9Z"/><path class="cls-3" d="M773.7,371.2c-39.6-6.6-74.4,10.2-114.3,13.2,64.7-22.4,134.6-17.2,202-1-22.5-1.3-44.9-6.7-66.7-9.6C787.5,372.7,780.5,371.8,773.7,371.2Z"/><path class="cls-3" d="M584.5,88.2c61.8,1.2,124.1-7.4,185.7-7.7,7.5,0,15,.1,22.5.2,15,.3,30,.8,45,1.7l24.9-.3-6.7-.3c-8.1.2-16.2.3-24.2.3-14.3-1.3-28.7-2-43.2-2.4-7.3-.2-14.5-.2-21.9-.2-60.4,2.8-120.2,10-181.9,8.7Z"/><path class="cls-3" d="M640.1,403.8c-6.5-.1-13.1-.2-19.7-.4l-30.2-.6c-10.2-.2-20.4-.4-30.6-.7,9.8,0,19.5-.2,29.3-.3s19.5-.4,29.3-.5l19.5-.3c39.2,1.3,79.1-8.6,119-8.8-32.4,1.5-62.3,10-94.8,11C654.9,403.5,647.6,403.7,640.1,403.8Z"/><path class="cls-3" d="M546.3,438.3c23.5,1.8,43.5,5.8,65,3.9,9.5,0,18.4-.1,26.7-.1,25.1-.1,45.6-.2,63.6-.3,7.2,0,13.9-.1,20.4-.1,27.4.3,57.3.1,84.8,1.4-32.4.2-62.4.3-95.1,1.1-8,.1-15.9.2-23.9.2s-16,.1-23.9.2c-8.5.1-17.3-.1-34.1-.4-5.6-.1-12.1-.3-19.9-.4-15.1.3-30.1-2.4-44.1-2.9C559.7,440.2,553.2,439.3,546.3,438.3Z"/><path class="cls-3" d="M489.9,121.8a299.64,299.64,0,0,1-42.4-.2c-7-.4-13.9-1-20.8-1.6s-14-1.4-21.2-2.2c8.1,1.1,16.1,1.9,23.9,2.3s15.5.3,23.1.2c23-.3,45.9-1.8,69-3.2,7.7-.5,15.4-.9,23.1-1.3,21.9-2.3,46.9-1,69.3-1.1-12.5-1.3-27.4,1.5-39,1-9.6-.1-20,.9-30.6,2s-21.5,2.3-32.1,2.6C504.9,120.7,497.5,121.3,489.9,121.8Z"/><path class="cls-3" d="M130.7,149.4c-37.9-.9-74.9-1.8-111.8-2.6,20.2-.4,41.4-1.2,60.3-1.1,29.9.1,59.3.4,88.6.7,7.3.1,14.7.2,22,.2s14.7.1,22,.2l-18.1.6-19,.6C161.8,148.4,147.5,148.9,130.7,149.4Z"/><path class="cls-3" d="M759.7,128.2c-7.2,0-14.5-.7-21.9-1.4s-14.9-1.3-22.4-1.3c7.1,0,14.2-.1,21.4-.1s14.4,0,21.7.1c29.1.2,58.7,1.2,87.8,4.4,5.5.2,11,.4,16.2.5-5.3.2-10.7.5-16.1.6-21.3,2.2-46.2-3.2-68-2.2C772.4,128.7,766.2,128.4,759.7,128.2Z"/><path class="cls-3" d="M76.7,404.9c-20.9,1.7-43.3,4.6-63.3,7.4,62.3-14.1,132.1-17.2,194.6-.9-34.9-5.4-69.9-9.3-108-8.8C92.3,403.1,84.6,403.9,76.7,404.9Z"/><path class="cls-3" d="M88.5,409.4c-27.7,1.4-52.6,7-80,8.6a522.68,522.68,0,0,1,207-1c-34.9-2.6-69.9-9.3-105.6-8.9A193.49,193.49,0,0,0,88.5,409.4Z"/><path class="cls-3" d="M278.5,336a256.25,256.25,0,0,1,25.9-4.8c8.7-1.2,17.3-1.9,26-2.4a459,459,0,0,1,52.4.7c17.6,1.1,35.4,2.9,53.3,4.6s36,3.5,54.3,4.6c5.6.4,11,.9,16.6,1.3H491c-16.3-.4-31.3-.3-48.7-1.6-15.8-2.2-31.6-4.5-47.5-6.1a447.22,447.22,0,0,0-47.7-2.8,281.29,281.29,0,0,0-48.1,4C292.6,334.3,285.8,335.1,278.5,336Z"/><path class="cls-3" d="M633.9,300.7c-29,1.9-58.9,3.4-83.9-6.2,52.4,13.6,112.2-1.9,164.6-7.7-19.9,1.5-39.9,7.1-58.8,10C648.7,298.2,641.5,299.5,633.9,300.7Z"/><path class="cls-3" d="M747.9,279c-5.7-.2-11.4-.3-17.1-.2s-11.5.3-17.3.6c-23.9.6-46.3,7.6-71.2,10.5,27.4-5.7,52.3-12.7,81.3-14,5.5-.2,11-.3,16.7-.2q8.4-.15,17.1,0c17.3.1,34.9.4,52.3.5-10.2.5-20.4.9-30.7,1.4S758.3,278.6,747.9,279Z"/><path class="cls-3" d="M392.6,282.2c25.1,4,50.1,5.9,75,7.4,6.2.4,12.5.7,18.7,1.2,36.3,1.1,71.3,10.7,108.7,16-37.4-1.2-72.4-10.7-110.8-14-7.1-.5-14.3-1-21.5-1.6-14.4-1.2-28.9-2.7-42.9-5.2C411.4,284.7,402.4,283.4,392.6,282.2Z"/><path class="cls-3" d="M82.7,68.6c-26-2-48.5-6.1-73.4-10.1A594.61,594.61,0,0,0,69,64.6q10,.45,20.1.6c28.2.6,53.2-2.3,78.1-9.3-19.9,5.6-42.4,8.5-63.5,12.5C96.6,68.7,89.6,68.7,82.7,68.6Z"/><path class="cls-3" d="M651,315.3c-21.1,1-43.5,3.9-63.5,1.2,39.9,2.6,77.3-5.9,115.3-10.2,7.8-.6,15.6-1,23.5-1a184.07,184.07,0,0,0-28.4,2.5c-9.1,1.4-17.9,3.1-26.9,4.3C664.5,313.1,657.8,314.2,651,315.3Z"/><path class="cls-3" d="M614.8,77.4a520.05,520.05,0,0,0-68.4.1c42.4-4.4,84.8-3.2,127.2-4.8-10,1.4-19.9,4.2-29,3C634.7,76.7,624.9,77.2,614.8,77.4Z"/><path class="cls-3" d="M896.5,124.7l-23.3.3-19.5.3c-24,.7-46.4-.8-69-2.7-5.7-.5-11.3-1-17-1.4s-11.4-1-17.2-1.4c5.4,0,10.8.1,16.4.3s11.1.4,16.6.7c22.3,1.1,44.8,2.9,65.6,3,5.9.1,12.6.3,20.3.4S886.1,124.5,896.5,124.7Z"/><path class="cls-3" d="M765.8,231.5c-11.2-.5-23-.7-34.8-.8H713.3c-5.8,0-11.6.1-17.3.2,7.5-.5,15-.8,22.5-1,22.5-.7,45.2-.8,68.5-.9,5.7.1,11.4.2,17.2.4s11.4.2,17.1.2c-8.9.4-17.9.7-27.1,1S775.7,231.2,765.8,231.5Z"/><path class="cls-3" d="M498.2,306.9c-8.3-.2-16-.2-23.2-.2-44.7.8-84.7-14.2-132.1-9.8,42.4-5.7,84.8,5.1,128.1,8.8C478.9,306.1,487.9,306.4,498.2,306.9Z"/><path class="cls-3" d="M656.7,187.9c-5.4,2.2-11.2,3.3-17.2,4.3a182.55,182.55,0,0,0-18.5,3.6c-9-.4-18-.9-27.1-1.3s-18-.9-27.1-1.4c10.8-.3,21.6-.6,32.3-.8,5.4-.1,10.8-.3,16.2-.5,15.6-.8,33.1-2.3,48.3-4.2C663.7,187.5,656.7,187.9,656.7,187.9Z"/><path class="cls-3" d="M198.2,428.5c-15.1-3.2-32.6-5.9-47.5-8.6,32.4,4,62.4,9.4,95.9,8.2l24.2.9c-5.7.1-11.3.3-17.1.4s-11.5.3-17.5.4-12,.1-18.3-.1S205,429.1,198.2,428.5Z"/><path class="cls-3" d="M149.1,388.1c-53.5-6.5-100.9,7.5-153.3,9.2C35.7,393,75.6,385.9,118.6,386,127.5,386.3,137.5,387,149.1,388.1Z"/><path class="cls-3" d="M590.2,450.5c-17.8-2.1-37.8-4.8-55.2-7.5,22.5,2.7,44.9,5.3,70.5,5.5l30,.6c-6.5.2-13.1.5-20.4.7S599.7,450.4,590.2,450.5Z"/><path class="cls-3" d="M232,329.6c20.5-4.1,42.9-5.6,63.5-9.8,4.7-.7,10.1-1.5,15.6-2s11.1-.9,16.1-.9c-6.2.7-12.5,1.8-18.7,2.8s-12.4,2.1-18.7,2.7c-12.5,1.6-25,4.4-37.5,5.5C246.1,328.6,239.3,329.1,232,329.6Z"/><path class="cls-3" d="M584.2,166c-19-.4-32.4-.7-45.7-1,16.9-.6,33-1.4,51-1.7,6-.1,12.7,0,19.5.2s13.9,0,20.6-.3c-7.9.8-15.8,1.4-23.4,1.8S591.1,165.7,584.2,166Z"/><path class="cls-3" d="M837.3,342.8c-18.5-3.5-38.5-8.9-58.5-10.2,37.4,1.2,67.4,12.1,104.8,13.3-7.5,0-12.5.1-20-.4S847.6,344.2,837.3,342.8Z"/><path class="cls-3" d="M406.7,292.3c-4-2.6-11.5-5.3-18.9-3.9,32.4-1.5,57.4,10.8,89.8,9.2-15,.1-29.9,1.5-44.2-2.3C425.9,294.5,417.1,293.5,406.7,292.3Z"/><path class="cls-3" d="M184.2,420.6c-16.1-2.1-31.1-4.8-46.1-7.5,32.4,1.2,62.4,8,94.8,10.6-7.5,0-15,.1-22.5-.8C202.9,422.4,194.4,421.7,184.2,420.6Z"/><path class="cls-3" d="M34.5,116.8c-15-.3-30-1.7-45-3,29.9-.1,62.4,1.1,92.3,3.7-7.5,0-15,.1-21.8-.4C52.5,117,44.2,116.9,34.5,116.8Z"/><path class="cls-3" d="M539.3,142.3c-9.2.5-17.8,1.1-28.6,1.4-5,.2-20.3-.1-20.2-.2.4-.6,3.8-1.3,6.2-1.9C510.8,141.9,524.9,142.1,539.3,142.3Z"/><path class="cls-3" d="M504.7,316.2c-7.9-1.6-15.3-1.5-22.8-1.5,10,0,20-.4,29.6-.1s19,1.5,27.8,4.2c-5-1.4-10-1.4-16.1-1.8C517.8,316.6,511.8,316.4,504.7,316.2Z"/><path class="cls-3" d="M538.4,385.5c-6.9.6-13.3,1.2-22.6,1.6-4.9.2-21,.1-21.4,0-1.8-.6.1-1.2.7-1.9Z"/><path class="cls-3" d="M353.8,6.5,330.5,5c14.1-.3,27.9-.8,42.3-.9,5-.1,11.5.5,17.3.8C379.5,5.4,368.7,5.9,353.8,6.5Z"/><path class="cls-3" d="M887,248.3c-6.9.6-13.3,1.2-22.6,1.6-4.9.2-21,.1-21.4,0-1.8-.6.1-1.2.7-1.9Z"/><path class="cls-3" d="M889.5,353.6c-18.3.7-33.2-.6-50.7-3.2,12.5-4.2,20,4.1,29,2.2C875.1,353.2,882.3,353.4,889.5,353.6Z"/><path class="cls-3" d="M884.6,179.5l-21.8.3c-22.3-1-47.3.5-67.3-6.3,22.5,2.7,44.9,6.7,67.1,5.8,7.3.1,14.6.1,21.9.2C884.5,179.6,884.6,179.5,884.6,179.5Z"/><path class="cls-3" d="M778.2,235.6c5.5-.2,11.1-.6,16.6-.8s11.2-.5,16.9-.5c8.7-.1,17.8.7,26.7,1.2-6,.3-12.9.9-18,.8q-10.8,0-21.3-.3C792.2,235.9,785.2,235.8,778.2,235.6Z"/><path class="cls-3" d="M800.7,410.6c-6.5-2-11.5-2-19-3.3,20,1.3,42.4,1.2,62.4,3.8-7.5,0-15,.1-21.5.1C815.4,411.1,808.1,410.8,800.7,410.6Z"/><path class="cls-3" d="M697.7,133.3c-2.1.6-7.1-.7-9.6-.7,17.5-1.5,34.9-1.6,52.4-1.6-7.5,0-15,.1-21.4.6C712.1,132,705,132.6,697.7,133.3Z"/><path class="cls-3" d="M587.1,223.9c-15.1,1.4-30,2.8-45,.2,7.5-4.2,15-.1,23.2-.8Z"/><path class="cls-3" d="M502.5,54.6c-6.9.1-16.9.1-24.4.2,10-1.4,20.6-2.9,31.2-4.1,5.3-.6,10.6-1.2,15.8-1.7s10.4-1,15.3-1.3c-5,1.4-12.5,1.4-17.6,3.4C516.8,52.1,510.2,53.3,502.5,54.6Z"/><path class="cls-3" d="M584.6,88.2c-20.7-1.1-40.6,4.5-60.2,6.5q-7.5,1.35-15.3,2.4c-5.2.7-10.4,1.4-15.8,1.9,5-.9,10-1.9,15-2.7s10-1.7,15-2.5c20.7-2.5,40.6-5.3,61.1-5.6Z"/><path class="cls-3" d="M38.6,78.5c-14.3-2.1-29.3-.7-44.3-3.4,7.5-5.6,15,1.3,22.1.4Q27.35,76.85,38.6,78.5Z"/><path class="cls-3" d="M41.2,310.6c-9.2.5-17.8,1.1-28.6,1.4-5,.2-20.3-.1-20.2-.2.4-.6,3.8-1.3,6.2-1.9C12.7,310.2,26.8,310.4,41.2,310.6Z"/><path class="cls-3" d="M449.5,133.9c-10.9-.1-20.8-.1-30.8-2.8,5,1.4,10,1.3,15.7,1.6C439.4,133.2,444.5,133.6,449.5,133.9Z"/><path class="cls-3" d="M583,248.6c-5.9-1.2-10.9-1.1-15.9-2.5,10,0,22.4-1.5,33,1.9Z"/><path class="cls-3" d="M868.4,367c6,.1,12.1-.3,17.6-.2s14.5.6,14.1.9-10.3.6-16.1.9C878.9,368.1,873.7,367.7,868.4,367Z"/><path class="cls-3" d="M377.7,135.2c-3.9-1-11.4-1-16.4-3.8,12.5,2.7,25,1.3,36,6.4C390.7,136.9,384.2,136,377.7,135.2Z"/><path class="cls-3" d="M395.7,157.8c-11.8-1.6-26.8-3-36.8-8.4,5,2.7,12.5,4.1,19,3.7C383.8,154.7,389.8,156.3,395.7,157.8Z"/><path class="cls-3" d="M862.5,82.1l11.8-2.4c-6.2.7-12.5,1.4-18.6,2C855.8,81.8,862.5,82.1,862.5,82.1Z"/><path class="cls-3" d="M376,256.9c-5.8-.2-8.3-.2-13.3-1.6,10,0,19.9-1.5,30.5.9C387.4,256.4,381.7,256.6,376,256.9Z"/><path class="cls-3" d="M370.2,403.2c9.9-2.3,22.4-2.4,32.4.3-5,0-12.5.1-17.2.5C380.3,403.8,375.2,403.5,370.2,403.2Z"/><path class="cls-3" d="M318.5,70.7c5.8,0,11.8-.2,17.3-.1s14.4.8,14.1,1.1-10.3.5-16,.6C328.7,71.9,323.6,71.3,318.5,70.7Z"/><path class="cls-3" d="M899.8,74.6c-5.7.3-11.7.9-17.1.9s-10.2-.5-15.3-.8l17.2-.9C889.6,74,894.7,74.3,899.8,74.6Z"/><path class="cls-3" d="M534.6,419.3c-4.8-2.5-12.3.3-14.8-2.4,10,0,22.5,2.7,32.2,3.1C546.2,419.7,540.4,419.5,534.6,419.3Z"/><path class="cls-3" d="M335.7,451.4c-5.1-.3-14.3-.6-14-.9s10.6-.9,15.9-.9,10.2.5,15.3.8C347.1,450.8,341.4,451.1,335.7,451.4Z"/><path class="cls-3" d="M283.9,265.8c-5.9,2.4-8.4,1.1-13.4-.3,10-1.4,19.9-2.9,29.7-2.4C294.8,263.9,289.4,264.8,283.9,265.8Z"/><path class="cls-3" d="M283.6,277.1c-3.9,1.2-8.9,1.3-13.9,2.7a67.12,67.12,0,0,1,14.1-4.4,102.73,102.73,0,0,1,16.1-1.5C294.6,274.9,289.2,276,283.6,277.1Z"/><path class="cls-3" d="M583.5,135c-5.1-.3-14.4-.6-14-.9s10.3-.6,16-.9l15.2.9Z"/><path class="cls-3" d="M483.1,23.9c-5.1-2.2-10.1-.8-15-.8,10-1.4,22.4-2.9,32.3-.7Z"/><path class="cls-3" d="M634.8,422.3c-5.1-.3-14.4-.6-14-.9s10.3-.6,16-.9l15.2.9Z"/><path class="cls-3" d="M794.9,365.4c-10.9-1-23.4-2.3-33.4-5,5,0,12.5-.1,17.1,1.1C784,362.7,789.4,364,794.9,365.4Z"/><path class="cls-3" d="M467.6,273.8c5,.2,10.6-.1,16.2.1a55.94,55.94,0,0,1,16.1,2.2c-5-.2-9.9-.3-16-.2Z"/><path class="cls-3" d="M883.5,266.3c-5.1-.3-14.3-.6-14-.9s10.6-.9,15.9-.9,10.2.5,15.3.8C895,265.6,889.3,266,883.5,266.3Z"/><path class="cls-3" d="M183.6,69.2c-3.9-1-8.8.4-13.8,3.2,7.5-4.2,19.9-5.6,30.7-6.8C194.8,66.7,189.2,67.9,183.6,69.2Z"/><path class="cls-3" d="M183.7,80.1c-3.9.5-8.9.6-13.9,2,10-4.2,17.4-5.6,30.8-5.5C194.9,77.6,189.3,78.8,183.7,80.1Z"/><path class="cls-3" d="M169.2,112.8c10.7,1,20.6-5.9,33.1-1.9-5,0-12.5.1-18.1,1.7C179.2,112.6,174.2,112.7,169.2,112.8Z"/><path class="cls-3" d="M165.2,288c9.8-2.2,22.3-.9,32.2-.9-5,2.8-12.5.1-17.3,2.2C175.1,289,170.1,288.5,165.2,288Z"/><path class="cls-3" d="M185.3,435.5c-4.6-.5-9.6-.4-14.6-3.2,10,1.3,22.5,1.3,32.2,3.9C197,436.1,191.2,435.8,185.3,435.5Z"/><path class="cls-3" d="M133.9,10.6c-5.1,1.6-10.1-1.1-15.1-1.1,10,0,22.4-1.5,32.3-.2C145.4,9.7,139.6,10.2,133.9,10.6Z"/><path class="cls-3" d="M134.1,250.5c-4.2.9-9.2-1.8-14.2-1.8,10-1.4,20,1.3,31,1.8C145.3,250.6,139.6,250.6,134.1,250.5Z"/><path class="cls-3" d="M833.3,200c-5.2,1.1-10.2-1.7-15.2-1.6,10,0,22.4-1.5,32.5.9C844.8,199.5,839.1,199.8,833.3,200Z"/><path class="cls-3" d="M833,138.6c-5.3-2.6-12.7.2-15.2-2.5,10,1.3,22.4-.1,32.5,2.2C844.5,138.6,838.8,138.7,833,138.6Z"/><path class="cls-3" d="M69.2,431.8c9.2-1.8,19.1-4.6,29.1-3.3-2.5,2.8-10,0-14.4,2.9C79,431.5,74.1,431.7,69.2,431.8Z"/><path class="cls-3" d="M430.2,86.5c-4.3.3-9.3-2.4-14.3-2.4,10-1.4,20,2.7,31,3.4C441.3,87.3,435.7,86.9,430.2,86.5Z"/><path class="cls-3" d="M52.7,280.5c-5.7.3-11.7.9-17.1.9s-10.2-.5-15.3-.8l17.2-.9C42.5,279.9,47.6,280.2,52.7,280.5Z"/><path class="cls-3" d="M415.7,91.3c10.2,1.1,20.2,1,30.2,3.7-5,0-10,1.4-15.7-.8C425.4,93.4,420.6,92.4,415.7,91.3Z"/><path class="cls-3" d="M52.9,327.5c-5.7.3-11.7.9-17.1.9s-10.2-.5-15.3-.8l17.2-.9C42.8,326.9,47.8,327.2,52.9,327.5Z"/><path class="cls-3" d="M-30.8,9.8c5.7-.3,11.7-.8,17.1-.9S.7,9.4.4,9.7s-10.3.6-16,.9C-20.7,10.4-25.8,10.1-30.8,9.8Z"/><path class="cls-3" d="M-15.6,43.9c-5.1-.3-14.4-.6-14-.9s10.3-.6,16-.9c5.1.4,10.1.9,15.2,1.5C-4.1,43.6-9.9,43.7-15.6,43.9Z"/><path class="cls-3" d="M-30.5,90c9.9-2.4,22.4.3,32.4.3a158.61,158.61,0,0,0-17.1.7C-20.3,90.6-25.4,90.3-30.5,90Z"/><path class="cls-3" d="M3.1,377.6c-5.6.3-11.6.8-16.9.7s-10.2-.5-15.3-.8l17.2-.9C-6.9,377-1.9,377.3,3.1,377.6Z"/><path class="cls-3" d="M-13.7,439.3c-5.1-.3-14.4-.6-14-.9s10.3-.6,16-.9c5.1.3,10.1.6,15.2.8C-2.2,438.6-8,439-13.7,439.3Z"/><path class="cls-3" d="M-28.7,457.7c5.7-.3,11.7-.8,17.1-.9s14.4.5,14.1.8-10.3.6-16,.9C-18.6,458.3-23.6,458-28.7,457.7Z"/></g><path class="cls-4" d="M540.6,492.8c-50-5.8-100.7-21.2-152.3-6.5"/><path class="cls-4" d="M535.1,528.7c-52.8-3.6-104.5-2.4-155.5-.1"/><path class="cls-4" d="M411.8,512.3c-7.9,1-15.5,1.9-23,2.8s-14.9,1.8-22.3,2.5"/><path class="cls-4" d="M286.1,557l27.1-.3"/><path class="cls-4" d="M267.5,494.8c35.4-3.1,70.5,6.6,106.1-.9"/><path class="cls-4" d="M428.5,569.2c6,.2,12.1.3,18.2.5"/><path class="cls-4" d="M681.5,472.6c36.7,1.8,69.5-9.2,104.8-13.8"/><path class="cls-4" d="M802.4,490.9c7.2-.4,14.3-.3,21.2-.1,26.2,2.6,48.9,7.5,74,12.3"/><path class="cls-4" d="M286.8,475.4a455.31,455.31,0,0,0,69,.6"/><path class="cls-4" d="M549.4,559.5c7.9.6,15.7,1.3,23.5,1.9"/><path class="cls-4" d="M424.5,502.8c-10.1,1.5-20.8,3.1-31.5,4.4-5.4.7-10.7,1.3-16,1.8"/><path class="cls-4" d="M585.7,486.1c-5.8-.1-11.9.1-17.4-.1"/><path class="cls-4" d="M16.5,475.2c5.5,0,10.3.7,15.4,1.1"/><path class="cls-4" d="M401.8,539.9c5.8-.5,11.6-1.1,17.4-1.5,5.1,2.6,10.1,1.1,15.2,1.1"/><path class="cls-4" d="M704.8,493.1c5.7-1.2,11.4-2.5,17.1-4,3.9,1.2,8.9-.4,14-3.5"/><path class="cls-4" d="M735.9,474.5c-10.1,4.7-17.6,6.3-31.1,6"/><path class="cls-4" d="M786.7,558.4c-10.1,0-22.7,1.5-32.6-.1"/><path class="cls-4" d="M487.5,469.7c-10.1,1.5-20.1-3.3-31.2-4.2"/><circle class="cls-5" cx="97.2" cy="97.9" r="95.9"/><ellipse class="cls-6" cx="98.2" cy="97.8" rx="69.6" ry="68.4"/><circle class="cls-7" cx="97.2" cy="97.5" r="55.6"/><circle class="cls-8" cx="68.8" cy="137" r="3.1"/><circle class="cls-8" cx="74.99" cy="136.99" r="3.1" transform="translate(-28.77 20.27) rotate(-12.94)"/><circle class="cls-8" cx="74.3" cy="143.2" r="3.1"/><circle class="cls-8" cx="81.4" cy="140.2" r="4.1"/><circle class="cls-8" cx="83.9" cy="147.3" r="3.1"/><circle class="cls-8" cx="88.6" cy="143.19" r="3.1" transform="translate(-1.48 0.92) rotate(-0.59)"/><ellipse class="cls-8" cx="88.6" cy="149.1" rx="2" ry="2.4"/><circle class="cls-8" cx="93.8" cy="147.3" r="3.1"/><circle class="cls-8" cx="88.5" cy="136.6" r="3.1"/><circle class="cls-8" cx="101.6" cy="147.6" r="4.4"/><circle class="cls-8" cx="96.81" cy="142.55" r="2.4" transform="translate(-70.2 185) rotate(-70.08)"/><circle class="cls-8" cx="94.7" cy="137" r="3.1"/><circle class="cls-8" cx="109.09" cy="148.39" r="3.1" transform="translate(-1.53 1.14) rotate(-0.59)"/><circle class="cls-8" cx="106.3" cy="143.2" r="2.2"/><circle class="cls-8" cx="102.28" cy="139.63" r="3.1" transform="translate(-46.19 228.6) rotate(-84.71)"/><ellipse class="cls-8" cx="113.41" cy="140.97" rx="5.1" ry="4.7" transform="translate(-67.25 131.2) rotate(-48.09)"/><circle class="cls-8" cx="114.7" cy="147.8" r="1.5"/><ellipse class="cls-8" cx="118.6" cy="145.9" rx="2.1" ry="2.2"/><circle class="cls-8" cx="107.6" cy="135.8" r="3.1"/><circle class="cls-8" cx="79.7" cy="133.2" r="3.1"/><circle class="cls-8" cx="121.7" cy="140.5" r="3.1"/><circle class="cls-8" cx="85.2" cy="131.1" r="3.1"/><circle class="cls-8" cx="97.2" cy="131.1" r="3.1"/><circle class="cls-8" cx="118.59" cy="134.2" r="3.1" transform="translate(-16.26 16.35) rotate(-7.38)"/><ellipse class="cls-8" cx="112.9" cy="133.2" rx="2.2" ry="2.6"/><circle class="cls-8" cx="127.5" cy="140.9" r="2.3"/><circle class="cls-8" cx="131.3" cy="138.1" r="2.3"/><circle class="cls-8" cx="135" cy="135" r="2.3"/><circle class="cls-8" cx="127.9" cy="136.6" r="1.5"/><circle class="cls-8" cx="131.6" cy="135" r="0.7"/><circle class="cls-8" cx="121.7" cy="145.1" r="0.7"/><circle class="cls-8" cx="123.4" cy="144.7" r="0.7"/><circle class="cls-8" cx="125.1" cy="143.6" r="0.7"/><circle class="cls-8" cx="130.15" cy="136.79" r="3.1" transform="translate(-32.92 231.96) rotate(-76.69)"/><circle class="cls-8" cx="131.58" cy="130.8" r="3.1" transform="translate(-0.07 261.53) rotate(-89.63)"/><circle class="cls-8" cx="137.42" cy="132.88" r="3.1" transform="translate(-23.53 236.02) rotate(-76.69)"/><circle class="cls-8" cx="136.07" cy="125.18" r="4.1" transform="translate(-17.07 228.77) rotate(-76.69)"/><circle class="cls-8" cx="143.55" cy="124.44" r="3.1" transform="translate(-10.6 235.49) rotate(-76.69)"/><circle class="cls-8" cx="140.65" cy="118.92" r="3.1" transform="translate(-6.31 229.95) rotate(-77.29)"/><ellipse class="cls-8" cx="146.53" cy="120.25" rx="2" ry="2.4" transform="translate(-4.23 235.16) rotate(-76.69)"/><circle class="cls-8" cx="145.83" cy="114.81" r="3.1" transform="translate(0.53 230.3) rotate(-76.69)"/><circle class="cls-8" cx="147.95" cy="107.33" r="4.4" transform="translate(9.45 226.6) rotate(-76.69)"/><circle class="cls-8" cx="141.89" cy="110.74" r="2.4" transform="matrix(0.55, -0.84, 0.84, 0.55, -28.49, 168.75)"/><circle class="cls-8" cx="150.49" cy="100.21" r="3.1" transform="translate(19.62 224.95) rotate(-77.29)"/><circle class="cls-8" cx="144.75" cy="101.69" r="2.2" transform="translate(12.47 219.15) rotate(-76.69)"/><ellipse class="cls-8" cx="144.19" cy="94.32" rx="4.7" ry="5.1" transform="translate(-28.04 99.1) rotate(-34.78)"/><circle class="cls-8" cx="151.12" cy="94.63" r="1.5" transform="translate(24.25 219.91) rotate(-76.69)"/><ellipse class="cls-8" cx="150.21" cy="90.35" rx="2.1" ry="2.2" transform="translate(27.7 215.72) rotate(-76.69)"/><circle class="cls-8" cx="128.92" cy="125.29" r="3.1" transform="translate(-22.68 221.9) rotate(-76.69)"/><circle class="cls-8" cx="145.68" cy="86.1" r="3.1" transform="translate(28.36 208.05) rotate(-76.69)"/><circle class="cls-8" cx="128.15" cy="119.39" r="3.1" transform="translate(-17.54 216.61) rotate(-76.69)"/><circle class="cls-8" cx="147.43" cy="80.57" r="2.3" transform="translate(35.08 205.49) rotate(-76.69)"/><circle class="cls-8" cx="145.59" cy="76.19" r="2.3" transform="translate(37.93 200.33) rotate(-76.69)"/><circle class="cls-8" cx="143.38" cy="71.85" r="2.3" transform="translate(40.45 194.84) rotate(-76.69)"/><circle class="cls-8" cx="143.31" cy="79.17" r="1.5" transform="translate(33.28 200.41) rotate(-76.69)"/><circle class="cls-8" cx="142.67" cy="75.2" r="0.7" transform="translate(36.64 196.73) rotate(-76.69)"/><circle class="cls-8" cx="150.21" cy="87.16" r="0.7" transform="translate(30.81 213.28) rotate(-76.69)"/><circle class="cls-8" cx="150.14" cy="85.41" r="0.7" transform="translate(32.46 211.85) rotate(-76.69)"/><circle class="cls-8" cx="149.54" cy="83.5" r="0.7" transform="translate(33.86 209.79) rotate(-76.69)"/><circle class="cls-8" cx="49.91" cy="80.9" r="3.1" transform="translate(-22.3 19.08) rotate(-17.76)"/><circle class="cls-8" cx="45.71" cy="87.99" r="3.1" transform="translate(-24.67 18.14) rotate(-17.76)"/><circle class="cls-8" cx="44.71" cy="98.4" r="3.1" transform="translate(-27.89 18.33) rotate(-17.76)"/><ellipse class="cls-8" cx="44.42" cy="103.5" rx="2.4" ry="2" transform="translate(-29.46 18.49) rotate(-17.76)"/><circle class="cls-8" cx="47.71" cy="107.8" r="3.1" transform="translate(-30.62 19.7) rotate(-17.76)"/><circle class="cls-8" cx="49.89" cy="115.29" r="4.4" transform="translate(-32.8 20.72) rotate(-17.76)"/><circle class="cls-8" cx="51.3" cy="122.7" r="3.1" transform="translate(-36.03 22.4) rotate(-18.36)"/><circle class="cls-8" cx="55.52" cy="118.48" r="2.2" transform="translate(-33.5 22.59) rotate(-17.76)"/><ellipse class="cls-8" cx="59.7" cy="124.56" rx="4.7" ry="5.1" transform="translate(-78.38 128.08) rotate(-65.85)"/><circle class="cls-8" cx="53.69" cy="127.79" r="1.5" transform="translate(-36.43 22.47) rotate(-17.76)"/><ellipse class="cls-8" cx="56.71" cy="130.99" rx="2.2" ry="2.1" transform="translate(-37.26 23.55) rotate(-17.76)"/><circle class="cls-8" cx="62.7" cy="132.3" r="3.1" transform="translate(-37.38 25.44) rotate(-17.76)"/><circle class="cls-8" cx="69.01" cy="130.38" r="3.1" transform="translate(-36.49 27.27) rotate(-17.76)"/><circle class="cls-8" cx="71" cy="140.09" r="0.7" transform="translate(-39.36 28.34) rotate(-17.76)"/><circle class="cls-8" cx="58.3" cy="133.7" r="0.7" transform="translate(-38.01 24.16) rotate(-17.76)"/><circle class="cls-8" cx="60.91" cy="137.4" r="0.7" transform="translate(-39.02 25.13) rotate(-17.76)"/><circle class="cls-8" cx="63.61" cy="138.09" r="0.7" transform="translate(-39.1 25.99) rotate(-17.76)"/><ellipse class="cls-9" cx="179.6" cy="97.9" rx="12.4" ry="8.8"/><path class="cls-10" d="M110.6,50.5a3.16,3.16,0,0,0-1.8,3.3,3.23,3.23,0,0,0,3.2,2.6,7.89,7.89,0,0,1,6.4,1.9c3.9,3.1,4.6,4.3,5,4.1,1.1-.5-.2-8.7-4.2-11.3a17.72,17.72,0,0,0-4.1-1.7,4.24,4.24,0,0,0-2.1-.3A3.52,3.52,0,0,0,110.6,50.5Z"/><path class="cls-11" d="M51.9,422.9l40.3-98a12.07,12.07,0,0,1,15.7-6.5l1.8.8a12.07,12.07,0,0,1,6.5,15.7l-40.3,98"/><path class="cls-12" d="M111.2,347.2,75.7,433.5a9.23,9.23,0,0,1-12.1,5h0a9.23,9.23,0,0,1-5-12.1l35.5-86.3"/><path class="cls-12" d="M66.6,406.8l26.7-65a5.78,5.78,0,0,1,7.5-3.1h0a5.78,5.78,0,0,1,3.1,7.5l-26.7,65"/><path class="cls-13" d="M47,308.4l77.9-29.9c4.9-1.9,10.2.2,11.9,4.6l.5,1.3c1.7,4.4-.9,9.5-5.8,11.4L53.6,325.7"/><path class="cls-14" d="M121.7,299.5,53.1,325.9c-3.7,1.4-7.9-.2-9.2-3.5h0c-1.3-3.4.7-7.3,4.4-8.8l68.6-26.4"/><path class="cls-14" d="M64,307.6l51.7-19.9a4.35,4.35,0,0,1,5.7,2.2h0a4.23,4.23,0,0,1-2.8,5.4L66.9,315.2"/><path class="cls-15" d="M166.5,365.2l-38.9-40.6c-2.4-2.5-1.9-7,1.1-9.9l.9-.9c3-2.9,7.5-3.2,9.9-.7l38.9,40.6"/><path class="cls-16" d="M144.4,318.2l34.3,35.7c1.9,1.9,1.5,5.4-.9,7.6h0c-2.3,2.3-5.8,2.5-7.7.5l-34.3-35.7"/><path class="cls-16" d="M162.4,354l-25.8-26.9c-1.2-1.2-.9-3.3.5-4.7h0c1.5-1.4,3.6-1.6,4.8-.3L167.7,349"/><path class="cls-11" d="M58.9,365.6l101.5-30.4a12,12,0,0,1,14.9,8.1l.6,1.9a12,12,0,0,1-8.1,14.9L66.3,390.5"/><path class="cls-12" d="M155.1,363.9,65.7,390.7a9.17,9.17,0,0,1-11.5-6.2h0A9.17,9.17,0,0,1,60.4,373l89.4-26.8"/><path class="cls-12" d="M80.7,366.9,148,346.7a5.79,5.79,0,0,1,7.2,3.9h0a5.79,5.79,0,0,1-3.9,7.2L84,377.9"/><polygon class="cls-17" points="772.9 440 533.8 376.1 636.6 -8.6 875.7 55.3 772.9 440"/><text class="cls-18" transform="matrix(1.04, 0.28, -0.26, 0.97, 669.44, 47.87)">Resume</text><text class="cls-19" transform="matrix(1.04, 0.28, -0.26, 0.97, 669.44, 47.87)">Resume</text><g class="cls-20"><text class="cls-21" transform="matrix(0.89, 0.23, -0.26, 0.97, 622.4, 73.91)">I attended high school in Coleville, </text><text class="cls-21" transform="matrix(0.89, 0.23, -0.26, 0.97, 616.88, 94.79)">Utah, and immediately sought out</text><text class="cls-21" transform="matrix(0.89, 0.23, -0.26, 0.97, 611.36, 115.68)"><tspan xml:space="preserve"> a higher education following my </tspan></text><text class="cls-21" transform="matrix(0.89, 0.23, -0.26, 0.97, 605.84, 136.56)">graduation. </text></g><polygon class="cls-22" points="709.5 537.3 502.7 401.3 721.4 68.5 928.3 204.5 709.5 537.3"/><g class="cls-20"><text class="cls-23" transform="matrix(0.83, 0.55, -0.55, 0.83, 720.83, 122.16)">How<tspan class="cls-24" x="70" y="0"> </tspan><tspan class="cls-25" x="78.35" y="0">T</tspan><tspan x="97.82" y="0">o Get</tspan></text><text class="cls-23" transform="matrix(0.83, 0.55, -0.55, 0.83, 736.55, 184.41)"><tspan class="cls-26">A</tspan><tspan x="24.01" y="0" xml:space="preserve"> Job</tspan></text><text class="cls-27" transform="matrix(0.83, 0.55, -0.55, 0.83, 709.66, 206.9)">By Clayton<tspan class="cls-24" x="64.17" y="0"> </tspan><tspan class="cls-25" x="67.42" y="0">T</tspan><tspan x="74.99" y="0">aylor</tspan></text></g><g class="cls-20"><text class="cls-28" transform="matrix(0.85, 0.56, -0.55, 0.84, 649.67, 196.24)">Finding a job can be hard.<tspan class="cls-29" x="156.63" y="0"> </tspan><tspan class="cls-30" x="160.11" y="0">W</tspan><tspan class="cls-31" x="173.06" y="0">e’ve all </tspan></text><text class="cls-28" transform="matrix(0.85, 0.56, -0.55, 0.84, 639.8, 211.28)">been there, trying to find our next </text><text class="cls-28" transform="matrix(0.85, 0.56, -0.55, 0.84, 629.92, 226.33)">place of employment, but not really </text><text class="cls-28" transform="matrix(0.85, 0.56, -0.55, 0.84, 620.04, 241.38)">sure where to start!<tspan class="cls-29" x="115.37" y="0"> </tspan><tspan x="118.85" y="0">That</tspan><tspan class="cls-32" x="146.34" y="0">’</tspan><tspan class="cls-33" x="150.51" y="0">s why this </tspan></text><text class="cls-28" transform="matrix(0.85, 0.56, -0.55, 0.84, 610.16, 256.43)">website was created. Here is provided</text><text class="cls-28" transform="matrix(0.85, 0.56, -0.55, 0.84, 600.29, 271.48)">a step-by-step solution to meet all of </text><text class="cls-28" transform="matrix(0.85, 0.56, -0.55, 0.84, 590.41, 286.52)">your job-hunting needs, starting with</text><text class="cls-28" transform="matrix(0.85, 0.56, -0.55, 0.84, 580.54, 301.57)">how to find a job and ending with a </text><text class="cls-28" transform="matrix(0.85, 0.56, -0.55, 0.84, 570.66, 316.62)">success plan for really nailing that </text><text class="cls-28" transform="matrix(0.85, 0.56, -0.55, 0.84, 560.78, 331.67)">final interview! Let<tspan class="cls-32" x="116.62" y="0">’</tspan><tspan x="120.78" y="0">s get started!</tspan></text><text class="cls-34" transform="matrix(0.85, 0.56, -0.55, 0.84, 552.28, 344.63)"> </text></g><line class="cls-35" x1="69.9" y1="320.6" x2="127" y2="298.6"/><line class="cls-35" x1="76.9" y1="312.4" x2="118.3" y2="296.1"/><line class="cls-35" x1="76.6" y1="303.7" x2="113.6" y2="289.7"/><line class="cls-35" x1="62" y1="420" x2="94.3" y2="342.7"/><line class="cls-35" x1="79.3" y1="409.8" x2="105.2" y2="346.8"/><line class="cls-35" x1="117.6" y1="334.2" x2="85.5" y2="411.2"/><line class="cls-35" x1="77.4" y1="388.6" x2="83.6" y2="386.7"/><line class="cls-35" x1="90.7" y1="384.6" x2="93.3" y2="383.7"/><line class="cls-35" x1="67.4" y1="391.9" x2="70.8" y2="390.8"/><line class="cls-35" x1="100.5" y1="381.3" x2="169" y2="360.8"/><line class="cls-35" x1="104.4" y1="372.7" x2="152.9" y2="358.1"/><line class="cls-35" x1="94.1" y1="375.9" x2="97.4" y2="375.2"/><line class="cls-35" x1="85.5" y1="378.9" x2="88.1" y2="377.9"/><line class="cls-35" x1="61.4" y1="374.3" x2="70.7" y2="371.6"/><line class="cls-35" x1="76.8" y1="369.5" x2="79.8" y2="368.6"/><line class="cls-35" x1="85.5" y1="366.9" x2="94" y2="364.5"/><line class="cls-35" x1="100" y1="362.2" x2="102.8" y2="361.5"/><line class="cls-35" x1="108.8" y1="359.9" x2="148.8" y2="348"/><line class="cls-35" x1="138.9" y1="311.4" x2="159.7" y2="333.1"/><line class="cls-35" x1="163.8" y1="337.1" x2="174.2" y2="348.1"/><line class="cls-35" x1="141.6" y1="320.9" x2="155.1" y2="334.5"/><line class="cls-35" x1="158.3" y1="337.9" x2="167.7" y2="347.8"/><line class="cls-35" x1="137.2" y1="326.4" x2="146.8" y2="336.6"/><line class="cls-35" x1="150.5" y1="340.5" x2="167.1" y2="357.8"/><path class="cls-36" d="M282.4,492.5a1.38,1.38,0,0,1,.4-.3,5.67,5.67,0,0,1,1.6-2.2,23.51,23.51,0,0,1-1.9-3.9c-1-2.4-2.7-3.8-4-6.1-.7-1.3-1.2-2.4-1.8-3.6L47.1,560.9l6,16.2,228.1-84A2.28,2.28,0,0,1,282.4,492.5Z"/><path class="cls-37" d="M58.9,575.3c-7.3,2.7-14.6,5.4-21.8,8-4.9,1.8-10.2-.1-11.7-4.3l-.5-1.5c-1.5-4.2,1.2-9.1,6.1-10.9,13.4-3.9,18.4-7.4,20.9-7.7,4.5-.5.5-.4.9-.3C55.4,558.7,60.6,568.3,58.9,575.3Z"/><path class="cls-38" d="M40.5,580.9a6.17,6.17,0,0,1-4.5,3.2,8.85,8.85,0,0,1-11.3-5.5h0c-1.7-4.7.5-9.9,5-11.5,1-.8,3.9-1.9,5.6-1C40.2,568.7,41.8,577.8,40.5,580.9Z"/><path class="cls-39" d="M40.3,563.6a14,14,0,0,1,4.1,9.1"/><path class="cls-39" d="M48.5,564.6a14.92,14.92,0,0,1,2.5,4.5,12.38,12.38,0,0,1,.7,5"/><path class="cls-40" d="M282.5,492.4l19.9-19.6L276.7,476h-.1c-.1,1.3-.3,2.7-.4,4,.9.8,1.8,1.5,2.7,2.3-.1,1.3-.3,2.5-.4,3.8.9.7,1.7,1.4,2.6,2.1a1.62,1.62,0,0,1,.6.6,2.46,2.46,0,0,1-1.1,2.6A8.48,8.48,0,0,0,282.5,492.4Z"/><polygon points="298.5 477.1 294.7 473.3 302 473 298.5 477.1"/></svg>