<?xml version="1.0" encoding="utf-8"?>
<!-- Generator: Adobe Illustrator 21.1.0, SVG Export Plug-In . SVG Version: 6.00 Build 0)  -->
<svg version="1.1" id="Layer_1" xmlns="http://www.w3.org/2000/svg" xmlns:xlink="http://www.w3.org/1999/xlink" x="0px" y="0px"
	 viewBox="0 0 900 600" style="enable-background:new 0 0 900 600;" xml:space="preserve">
<style type="text/css">
	.st0{fill:#C69C6D;}
	.st1{opacity:0.4;}
	.st2{fill:#42210B;}
	.st3{fill:#8C6239;}
	.st4{fill:url(#SVGID_1_);stroke:#000000;stroke-miterlimit:10;}
	.st5{fill:url(#SVGID_2_);stroke:#000000;stroke-miterlimit:10;}
	.st6{fill:#301709;stroke:#513223;stroke-width:1.0501;stroke-miterlimit:10;}
	.st7{fill:#301709;stroke:#513223;stroke-miterlimit:10;}
	.st8{fill:url(#SVGID_3_);stroke:#000000;stroke-width:0.9664;stroke-miterlimit:10;}
	.st9{fill:url(#SVGID_4_);stroke:#000000;stroke-width:0.9664;stroke-miterlimit:10;}
	.st10{fill:url(#SVGID_5_);}
	.st11{fill:none;stroke:#8E8A8A;stroke-width:4;stroke-miterlimit:10;}
	.st12{fill:none;stroke:#8E8A8A;stroke-width:4.0993;stroke-miterlimit:10;}
	.st13{fill:none;stroke:#8E8A8A;stroke-width:2.9947;stroke-miterlimit:10;}
	.st14{fill:none;stroke:#8E8A8A;stroke-width:3.0691;stroke-miterlimit:10;}
	.st15{fill:none;stroke:#8E8A8A;stroke-width:2.3293;stroke-miterlimit:10;}
	.st16{fill:none;stroke:#8E8A8A;stroke-width:2.3871;stroke-miterlimit:10;}
	.st17{fill:url(#SVGID_6_);stroke:#000000;stroke-width:1.0318;stroke-miterlimit:10;}
	.st18{font-family:'TimesNewRomanPSMT';}
	.st19{font-size:43.585px;}
	.st20{fill:none;stroke:#000000;stroke-width:0.25;stroke-miterlimit:10;}
	.st21{font-size:18px;}
	.st22{fill:url(#SVGID_7_);stroke:#000000;stroke-width:1.0318;stroke-miterlimit:10;}
	.st23{font-size:36px;}
	.st24{font-size:14px;}
	.st25{font-size:15px;}
	.st26{font-size:12.9451px;}
	.st27{fill:none;stroke:#EDE2E2;stroke-width:0.5;stroke-miterlimit:10;}
	.st28{fill:none;stroke:#000000;stroke-width:1.1388;stroke-miterlimit:10;}
	.st29{fill:#F9CD50;stroke:#000000;stroke-miterlimit:10;}
	.st30{fill:#D3D1CD;stroke:#000000;stroke-width:1.1111;stroke-miterlimit:10;}
	.st31{fill:#E094FF;stroke:#000000;stroke-width:1.1404;stroke-miterlimit:10;}
	.st32{fill:none;stroke:#000000;stroke-width:0.75;stroke-miterlimit:10;}
	.st33{fill:#C7B299;stroke:#000000;stroke-width:0.9061;stroke-miterlimit:10;}
</style>
<g>
	<path class="st0" d="M-2,608c0,0,0-23-0.1-60.2c0-5.3,0-10.9,0-16.7c-1.1-27.4-1.1-54.5-0.1-81.1c0-3.8,0-7.6,0-11.4
		C-2.4,350.3-2.5,243-2.6,156.5c0-4.5,0-9,0-13.4C-3.7,109.2-3.8,77-2.8,43.6c0-5.7,0-10.8,0-15.5c0-18.8,0-29.6,0-29.6
		s20,0,54.2-0.1c6.8,0,14.2,0,22.1,0c17,0.6,34.8,0.6,53.3-0.1c9.8,0,20,0,30.6,0C295-2,496-2.3,656.5-2.5c7,0,13.8,0,20.6,0
		c55.9-2.8,114.6-1.2,170-0.2c8.5,0,16.3,0,23.4,0c28.3,0,44.6-0.1,44.6-0.1s0.4,257.5,0.6,437.8c0,4.6,0,9.2,0,13.7
		c-1,16.5-1,33.4,0.1,51.1c0,4,0,7.9,0,11.7c0.1,57.1,0.1,95.2,0.1,95.2s-127.1,0.2-286.7,0.4c-5.9,0-11.9,0-17.9,0
		c-73.8-6-150.3-9.3-224.7,0.3c-6.3,0.1-12.5,0.1-18.7,0.1c-68.4,0.1-134.1,0.2-190.6,0.3c-6.2,0-12.3,0-18.3,0
		c-11.6,0.7-21.8,0.7-34.4,0c-10.9,0-21.4,0-31.1,0C34.7,607.9-2,608-2,608z"/>
	<g class="st1">
		<g>
			<path class="st2" d="M660.7,462.9c-12,0.1-24.9,0.1-38.7,0.2c-6.9,0-13.9,0.1-21.2,0.1c-78.3-10.4-158.2-11.4-235.4,0.8
				c-9.9,0.4-19.9,0.5-30,0.5c-30.4,0.1-61.6,0.3-93.3,0.5c-5.5,0-11,0.1-16.5,0.1c-67.2,0.6-134.6-1.8-201.9,1.3
				c64.8-4.5,132.2-3.4,196.3-2.5c9.4-0.1,18.8-0.2,28.2-0.3c28.2-0.3,56.3-0.6,84.5-1c9.4-0.1,18.8-0.2,28.1-0.6
				c74.4-11.4,151.7-14.6,225.4-2.7c9.5,0.4,18.9,0.3,28.3,0.2c28.2-0.3,56.4-0.5,84.7-0.8c65.1-0.6,133,0.8,199.7,1.3
				C858,460.4,817.1,460.9,660.7,462.9z"/>
			<path class="st2" d="M532.5,65.7c81.2-1,163.5-9.7,245.8-8.7c8.2,0.4,16.5,0.9,24.7,1.6c16.5,1.3,33,3.1,49.4,5.5
				c-17-1.9-33.9-2.9-50.9-3.4c-8.5-0.3-17-0.4-25.4-0.4c-70,1.3-137.3,12.7-207.2,10.2c-17.5-1.3-32.4,5.7-50.9,6
				c-8.3,0.8-16.6,1.2-24.9,1.4c-41.4,1.1-82.4-4.1-123.6-10.4c-7.3-1.1-14.7-2.3-22-3.5c-9.2-0.4-18.5-0.8-27.8-1.4
				c7.4,0.3,14.9,0.5,22.3,0.5c7.1,0.2,14.1,0.7,21.2,1.4c49.6,4.7,100,17.6,151,4.4C520.1,67.8,526.2,66.8,532.5,65.7z"/>
			<path class="st2" d="M273.3,184.4c15.9-4.3,33.4-5.7,50.8-5.8c6.9,0.5,13.6,1.1,20.3,1.9c45.4,5.6,90.4,15.1,137.8,13.5
				c-52.4,4.4-104.8-6.4-157.6-5.3c-6.2,0-12.3,0.2-18.5,0.3c-30.8,0.9-61.4,3.4-93.3,7.2c-8.2-0.1-16.4-0.1-24.6-0.2
				c-57.4-0.5-114.6-1.1-172-1.5c51-0.6,102.1-1.1,168-1.8c9.4-0.1,19.1-0.2,29.2-0.3c15.9-0.8,30.9-0.9,44.9-4.7
				C263.2,186.6,268.2,185.5,273.3,184.4z"/>
			<path class="st2" d="M615.6,35.1c-24.5-2.1-51.9-0.6-77.4,0.4c-8.1,0.5-16.1,0.9-24.2,1.3c-48.4,1.9-97,0.3-145.7-3.6
				c52.4,2.7,103.5,1.2,154.1-1.2c7.2-0.4,14.4-0.7,21.6-1.1c69.5-0.7,139.3-9.3,208.7-8c7.6,0.2,15.2,0.5,22.9,0.9
				c22.9,1.1,45.9,3,69.1,5.8c-26.2-1.4-52-2.9-77.8-3.5c-8.6-0.2-17.1-0.4-25.7-0.3c-35.4,1.3-70.3,2.8-103.6,8.4
				C630.1,34.6,622.7,35,615.6,35.1z"/>
			<path class="st2" d="M534.6,261.7c-17.3-2.9-34.7-4.2-51.9-6.3c-8.6-0.8-17.3-1.4-25.9-2c-60.5-4.1-120.3-6.4-181.3,3.4
				c-6.1,0.7-12.3,1.5-18.5,2.3c-12.4,1.7-24.9,3.5-37.3,4.2c12.5-0.8,24.9-2.9,37.3-4.9c6.2-1,12.4-2,18.5-2.7
				c59.2-10,118.5-9.2,178.2-5.4c8.5,0.5,17,1.1,25.6,1.8c78,14.5,160.3,11.4,239.9,2.9c7.9-0.3,15.8-0.6,23.8-0.9
				c8.8,0,17.6,0,26.4,0c26.4,0,52.8,0.1,79.2,0.1c-26,0.3-52,0.6-78.1,0.9c-8.7,0.1-17.4,0.2-26,0.3c-7.9-0.2-15.8-0.1-23.6,0.1
				c-53.9,2.3-106.2,19.1-161.3,9.3C551.3,263.9,543,262.8,534.6,261.7z"/>
			<path class="st2" d="M589.2,43.2c-15.5,2.3-33-0.3-46.9,1.9c-7.8,0.3-15.7,0.7-23.5,1.1c-54.8,2.3-109.3,1.9-164.6-4.5
				c-8,0-16.1,0-24.1-0.1c8.9-0.1,17.8-0.2,26.7-0.2c43.9,0,86.3,9.4,133.7,5c7.8-0.9,15.4-1.8,22.8-2.7c7.5-0.9,14.8-1.7,22.1-2.3
				c78.1-0.2,155.4-7.5,232.4-9.5c8,0.2,16,0.5,24,1c16,1,32,2.5,47.9,4.9c-22.5-2.8-45.1-4.3-67.9-4.9c-7.6-0.2-15.2-0.3-22.8-0.2
				c-45.6,2.5-93,5.5-137.6,10.7C603.8,43.5,596.4,43.4,589.2,43.2z"/>
			<path class="st2" d="M282,197.9c6.8-1.4,13.6-2.3,20.4-2.9c62.5-0.5,124.9,10.3,188.2,8.2c6.6,0,13.2,0,19.8,0.1
				c6.6,0,13.2,0,19.7,0c6.6,0,13.2,0,19.7,0.1c-6.6,0.1-13.2,0.1-19.8,0.2c-6.6,0.1-13.2,0.1-19.8,0.2c-6.6,0.1-13.2,0.1-19.8,0.2
				c-63,1.2-123-6.8-184.7-3.5c-6.6,0.3-13.3,0.7-20,1.1c-8.8,0.5-17.5,1.1-26.4,1.8s-17.7,1.6-26.7,2.6c-8.7,0.1-17.5,0.1-26.3,0.2
				c-61.7,0-123.3-0.2-185-0.2c61.4-0.7,122.8-1.5,184.5-2.2c8.8-0.1,17.6-0.2,26.3-0.5s17.2-1,25.4-1.9
				C265.9,200.3,274,199.1,282,197.9z"/>
			<path class="st2" d="M475.9,352.2c-68.7-5.3-138.6-14.7-208.4-1.9c74.8-15.6,149.6-3.5,226.8-1.1c8.1-0.2,16.3-0.3,24.6-0.2
				c57.8,0.4,118.1,5.9,172.6-7.7c-62.3,15.5-129.7,8.9-195.5,10.6C489.2,352.1,482.5,352.2,475.9,352.2z"/>
			<path class="st2" d="M884.5,179.6c-9.4,0-18.9-0.1-28.3-0.2c-85.6-13.9-167.9-10.8-254.8-1c-9.4,0-18.9-0.1-28.3-0.1
				c-28.3-0.1-56.6-0.2-84.9-0.4c33-0.6,66.3-1.3,99.5-2c8.3-0.2,16.6-0.4,24.9-0.6c83.2-16.3,165.5-14,247.5,3.2
				c8.2,0.5,16.4,0.9,24.6,1.2L884.5,179.6z"/>
			<path class="st2" d="M663.7,187.5c57-12.2,116.9-4.2,176.8,0.9c7.4,0.2,14.8,0.2,22.1,0.1c7.4-0.1,14.7-0.1,22.1-0.2
				c-8.2,0.4-16.4,0.7-24.6,1.1c-8.2,0.3-16.3,0.6-24.5,0.6c-60.1-1.2-119.9-6.5-179-2.2L663.7,187.5z"/>
			<path class="st2" d="M210.3,125.3c-27.8,2.3-52.7,1-80.6,1.8c-6.7-0.1-13.5-0.1-20.2-0.2c-26.9-0.4-53.7-0.9-79.9-0.8
				c27.4,0.6,54.3,0.1,81.1-0.6c6.7-0.2,13.4-0.4,20.2-0.5c66.6-2.9,131.5-10.1,198.9-7.9c7.4,0.1,14.9,0.2,22.3,0.5
				c29.7,1.1,59.4,3.9,89,9.3c-26.2-3-52.4-5.8-78.6-7.4c-8.7-0.5-17.5-1-26.2-1.2c-34.1-0.9-71.5-2.1-105.1,5.7
				C224.4,124.5,217.4,125,210.3,125.3z"/>
			<path class="st2" d="M429,160.1c-55.1-9.4-115.1-28.5-169.9-7.5c27.4-11.2,59.8-14.1,94.7-10.1c37.4,5.3,69.9,14.9,107.3,13.5
				c7.5-0.1,14.9-0.2,22.4-0.4c27.2-0.4,62.6,1.7,94.3,2.6c-25.9,0.6-51.7,1.3-76.6,1.9c-8.3,0.2-16.5,0.4-24.6,0.6
				c-8.1,0.2-16,0.4-23.9,0.4C444.9,161.1,437,160.8,429,160.1z"/>
			<path class="st2" d="M219.1-8.8c-27.1-0.1-52.9-0.2-78-0.4c-8.3,0-16.6-0.1-24.8-0.1C101.2-9.7,83.7-9.7,68-9.5
				c-8,0-15.9-0.1-23.8-0.1S28.3-9.7,20.4-9.7C28.3-9.8,36.2-9.9,44-10c7.9-0.1,15.8-0.2,23.6-0.3c16-2.2,33.5-0.9,47.3-0.6
				c7.9-0.1,15.8-0.2,23.6-0.3c39.4-0.5,78.8-0.9,118.2-1.1c63.3-0.4,126.9,0.2,190.3,0.4C369.1-10.8,291-9.7,219.1-8.8z"/>
			<path class="st2" d="M256.3,447.2c-7.5,0-15.1-0.1-22.6-0.1c-55.4,0.4-107.9-11.8-162.7-6c57.3-5.8,112.3,3.6,169.2,3.1
				c8.1-0.1,16.1-0.1,24.1-0.1c23.6-0.1,47.2-0.1,70.8,0c7.9,0,15.7,0,23.6-0.1c31.5-0.2,61.4-7.2,93.9-8.8
				c-32.4,2.9-62.3,8.6-95.7,10.6c-8.1,0.3-16.3,0.4-24.5,0.5C307.6,446.5,282.3,446.9,256.3,447.2z"/>
			<path class="st2" d="M208.5,211.5c7.9,0,15.8,0.1,23.7,0.1c6.2,0.1,12.5,0,18.8-0.3c6.3-0.3,12.7-0.5,19.1-0.9
				c6.1-0.7,12.3-1.2,18.7-1.6c18.8-0.3,36.3-3.1,56.2-1.9c-22.4,0.1-47.4,4.4-69.8,5c-6,0.5-11.9,0.9-17.8,1.2s-11.7,0.6-17.4,0.7
				c-40.4,1.1-77.9,2.7-116.7,0.8c-8.6,0-17.1-0.1-25.7-0.1c-25.7-0.2-51.5-0.4-77.2-0.5c31.2-0.4,62.3-0.9,93.6-1.3
				c15.6-0.2,31.3-0.4,47.1-0.6S192.6,211.8,208.5,211.5z"/>
			<path class="st2" d="M587.9,7c-3.3-0.1-7.9-0.2-13.4-0.3c-5.5-0.1-11.8-0.2-18.8-0.4c-7-0.1-14.5-0.3-22.4-0.4
				c-7.9-0.2-16.1-0.3-24.2-0.4c6.2-0.2,12.3-0.4,18.5-0.5c6.1-0.2,12.3-0.4,18.4-0.6s12.3-0.4,18.4-0.5c6.1-0.2,12.3-0.3,18.5-0.5
				c35.5-0.8,68-1,102.8-2.2c6.9-0.1,13.9-0.2,20.8-0.3c34.6-0.2,68.9,0.5,103.2,1.2c-28.7-0.6-56.8-0.4-84.8,0.3
				c-7,0.2-14,0.4-21,0.6c-30.6-0.7-58,5-89.1,3.6C606.1,6.7,597.1,6.8,587.9,7z"/>
			<path class="st2" d="M161.1,98.1c46.1-10.6,96-2.6,143.5,0c-64.9-8-127.2,2-192.8,8.2c-7.5,0.2-15,0.2-22.5,0.2
				c-22.5-0.2-44.9-1.3-67.4-3.8c20,2,39.3,2.6,58.7,2.4c6.5-0.1,12.9-0.2,19.5-0.4c12.4-0.2,27.4-1.6,39.6-2.8
				C147,100.7,154.1,99.4,161.1,98.1z"/>
			<path class="st2" d="M633.7,376.3c-26.7,0-54.2,0.1-80.4-0.7c-5.5,0-10.9-0.1-16.1-0.1c-10.5-0.1-20.7-0.2-30.8-0.3
				c6.1-0.1,12.2-0.3,18.2-0.4s12.1-0.3,18.2-0.5c44.3-0.7,91.7-0.9,133.1-8.1c6.3-1.3,12.5-2.7,18.8-4c18.9-4.1,38.2-8,59.4-8.8
				c-37.4,4.3-64.8,18.3-102,21.6C645.7,375.8,639.6,376.2,633.7,376.3z"/>
			<path class="st2" d="M633.7,60.4c-35,3-70-5.1-105.2,1.6c-5.1,0.7-10.3,1.4-15.4,2.2c6.2-0.7,12.5-1.7,18.7-2.7
				c12-3.5,24.4-4.9,36.9-3.6c64.9,2.5,127.2-11.7,192-10.6c-34.9,0.2-67.3,5.9-103,10.5C649.9,58.9,641.9,59.8,633.7,60.4z"/>
			<path class="st2" d="M523.5-2.1c-10.1-0.2-21-0.3-32.4-0.5c-5.7-0.1-11.5-0.2-17.5-0.3c-5.9-0.1-12-0.2-18.1-0.3
				S443.2-3.4,437-3.5s-12.4-0.2-18.7-0.3c38.5-0.5,77.5-1.4,115.5-1.4c32.6,0,64.5,0.5,96.5,0.9c6.4,0.1,12.8,0.2,19.3,0.2
				c-6.4,0.1-12.8,0.2-19.2,0.3C598.3-3.3,564.8-2.8,523.5-2.1z"/>
			<path class="st2" d="M223.7,83.3C187.2,82,154.9,91.8,120,96.1c67.3-19.7,139.6-17.3,211.5-8c6.4,0.3,12.8,0.4,19.2,0.6
				c-6.3,0-12.7,0.1-19.1,0c-27,1-57-4.4-83.8-4.9C240,83.5,232,83.3,223.7,83.3z"/>
			<path class="st2" d="M455.9,235.9c-33.5-3-65.9-7-100.8-4c34.3-3.6,68.6-0.8,102.7,1.5c6.8,0.5,13.6,0.9,20.4,1.3
				c41.6,2,86.5,4.5,128.9,5.7c-42.4,0.2-82.3-1-125.5-3.1C473,236.9,464.4,236.5,455.9,235.9z"/>
			<path class="st2" d="M773.7,371.2c-39.6-6.6-74.4,10.2-114.3,13.2c64.7-22.4,134.6-17.2,202-1c-22.5-1.3-44.9-6.7-66.7-9.6
				C787.5,372.7,780.5,371.8,773.7,371.2z"/>
			<path class="st2" d="M584.5,88.2c61.8,1.2,124.1-7.4,185.7-7.7c7.5,0,15,0.1,22.5,0.2c15,0.3,30,0.8,45,1.7
				c8.3-0.1,16.6-0.2,24.9-0.3l-6.7-0.3c-8.1,0.2-16.2,0.3-24.2,0.3c-14.3-1.3-28.7-2-43.2-2.4c-7.3-0.2-14.5-0.2-21.9-0.2
				c-60.4,2.8-120.2,10-181.9,8.7L584.5,88.2z"/>
			<path class="st2" d="M640.1,403.8c-6.5-0.1-13.1-0.2-19.7-0.4c-10-0.2-20-0.4-30.2-0.6s-20.4-0.4-30.6-0.7
				c9.8,0,19.5-0.2,29.3-0.3c9.8-0.2,19.5-0.4,29.3-0.5c6.5-0.1,13-0.2,19.5-0.3c39.2,1.3,79.1-8.6,119-8.8
				c-32.4,1.5-62.3,10-94.8,11C654.9,403.5,647.6,403.7,640.1,403.8z"/>
			<path class="st2" d="M546.3,438.3c23.5,1.8,43.5,5.8,65,3.9c9.5,0,18.4-0.1,26.7-0.1c25.1-0.1,45.6-0.2,63.6-0.3
				c7.2,0,13.9-0.1,20.4-0.1c27.4,0.3,57.3,0.1,84.8,1.4c-32.4,0.2-62.4,0.3-95.1,1.1c-8,0.1-15.9,0.2-23.9,0.2
				c-8,0.1-16,0.1-23.9,0.2c-8.5,0.1-17.3-0.1-34.1-0.4c-5.6-0.1-12.1-0.3-19.9-0.4c-15.1,0.3-30.1-2.4-44.1-2.9
				C559.7,440.2,553.2,439.3,546.3,438.3z"/>
			<path class="st2" d="M489.9,121.8c-14.4,1.1-28.5,0.7-42.4-0.2c-7-0.4-13.9-1-20.8-1.6c-7-0.6-14-1.4-21.2-2.2
				c8.1,1.1,16.1,1.9,23.9,2.3c7.8,0.3,15.5,0.3,23.1,0.2c23-0.3,45.9-1.8,69-3.2c7.7-0.5,15.4-0.9,23.1-1.3
				c21.9-2.3,46.9-1,69.3-1.1c-12.5-1.3-27.4,1.5-39,1c-9.6-0.1-20,0.9-30.6,2s-21.5,2.3-32.1,2.6
				C504.9,120.7,497.5,121.3,489.9,121.8z"/>
			<path class="st2" d="M130.7,149.4c-37.9-0.9-74.9-1.8-111.8-2.6c20.2-0.4,41.4-1.2,60.3-1.1c29.9,0.1,59.3,0.4,88.6,0.7
				c7.3,0.1,14.7,0.2,22,0.2c7.3,0.1,14.7,0.1,22,0.2c-6,0.2-11.9,0.4-18.1,0.6c-6.1,0.2-12.4,0.4-19,0.6
				C161.8,148.4,147.5,148.9,130.7,149.4z"/>
			<path class="st2" d="M759.7,128.2c-7.2,0-14.5-0.7-21.9-1.4c-7.4-0.7-14.9-1.3-22.4-1.3c7.1,0,14.2-0.1,21.4-0.1s14.4,0,21.7,0.1
				c29.1,0.2,58.7,1.2,87.8,4.4c5.5,0.2,11,0.4,16.2,0.5c-5.3,0.2-10.7,0.5-16.1,0.6c-21.3,2.2-46.2-3.2-68-2.2
				C772.4,128.7,766.2,128.4,759.7,128.2z"/>
			<path class="st2" d="M76.7,404.9c-20.9,1.7-43.3,4.6-63.3,7.4c62.3-14.1,132.1-17.2,194.6-0.9c-34.9-5.4-69.9-9.3-108-8.8
				C92.3,403.1,84.6,403.9,76.7,404.9z"/>
			<path class="st2" d="M88.5,409.4c-27.7,1.4-52.6,7-80,8.6c67.3-14.1,139.6-14.5,207-1c-34.9-2.6-69.9-9.3-105.6-8.9
				C102.8,408.1,95.7,408.6,88.5,409.4z"/>
			<path class="st2" d="M278.5,336c8.6-2.1,17.2-3.6,25.9-4.8s17.3-1.9,26-2.4c17.3-0.9,34.8-0.4,52.4,0.7s35.4,2.9,53.3,4.6
				s36,3.5,54.3,4.6c5.6,0.4,11,0.9,16.6,1.3c-5.3,0-10.6,0-16,0c-16.3-0.4-31.3-0.3-48.7-1.6c-15.8-2.2-31.6-4.5-47.5-6.1
				c-15.9-1.7-31.7-2.8-47.7-2.8c-15.9,0-31.9,1.2-48.1,4C292.6,334.3,285.8,335.1,278.5,336z"/>
			<path class="st2" d="M633.9,300.7c-29,1.9-58.9,3.4-83.9-6.2c52.4,13.6,112.2-1.9,164.6-7.7c-19.9,1.5-39.9,7.1-58.8,10
				C648.7,298.2,641.5,299.5,633.9,300.7z"/>
			<path class="st2" d="M747.9,279c-5.7-0.2-11.4-0.3-17.1-0.2c-5.7,0.1-11.5,0.3-17.3,0.6c-23.9,0.6-46.3,7.6-71.2,10.5
				c27.4-5.7,52.3-12.7,81.3-14c5.5-0.2,11-0.3,16.7-0.2c5.6-0.1,11.3-0.1,17.1,0c17.3,0.1,34.9,0.4,52.3,0.5
				c-10.2,0.5-20.4,0.9-30.7,1.4C768.7,278.1,758.3,278.6,747.9,279z"/>
			<path class="st2" d="M392.6,282.2c25.1,4,50.1,5.9,75,7.4c6.2,0.4,12.5,0.7,18.7,1.2c36.3,1.1,71.3,10.7,108.7,16
				c-37.4-1.2-72.4-10.7-110.8-14c-7.1-0.5-14.3-1-21.5-1.6c-14.4-1.2-28.9-2.7-42.9-5.2C411.4,284.7,402.4,283.4,392.6,282.2z"/>
			<path class="st2" d="M82.7,68.6c-26-2-48.5-6.1-73.4-10.1C29,61.5,49,63.6,69,64.6c6.7,0.3,13.4,0.5,20.1,0.6
				c28.2,0.6,53.2-2.3,78.1-9.3c-19.9,5.6-42.4,8.5-63.5,12.5C96.6,68.7,89.6,68.7,82.7,68.6z"/>
			<path class="st2" d="M651,315.3c-21.1,1-43.5,3.9-63.5,1.2c39.9,2.6,77.3-5.9,115.3-10.2c7.8-0.6,15.6-1,23.5-1
				c-10,0-19.3,1.1-28.4,2.5c-9.1,1.4-17.9,3.1-26.9,4.3C664.5,313.1,657.8,314.2,651,315.3z"/>
			<path class="st2" d="M614.8,77.4c-23.5-1.5-46-1.4-68.4,0.1c42.4-4.4,84.8-3.2,127.2-4.8c-10,1.4-19.9,4.2-29,3
				C634.7,76.7,624.9,77.2,614.8,77.4z"/>
			<path class="st2" d="M896.5,124.7c-8.5,0.1-16.2,0.2-23.3,0.3c-7.1,0.1-13.6,0.2-19.5,0.3c-24,0.7-46.4-0.8-69-2.7
				c-5.7-0.5-11.3-1-17-1.4c-5.7-0.5-11.4-1-17.2-1.4c5.4,0,10.8,0.1,16.4,0.3c5.5,0.2,11.1,0.4,16.6,0.7c22.3,1.1,44.8,2.9,65.6,3
				c5.9,0.1,12.6,0.3,20.3,0.4C877.2,124.4,886.1,124.5,896.5,124.7z"/>
			<path class="st2" d="M765.8,231.5c-11.2-0.5-23-0.7-34.8-0.8c-5.9,0-11.8,0-17.7,0c-5.8,0-11.6,0.1-17.3,0.2
				c7.5-0.5,15-0.8,22.5-1c22.5-0.7,45.2-0.8,68.5-0.9c5.7,0.1,11.4,0.2,17.2,0.4c5.7,0.1,11.4,0.2,17.1,0.2
				c-8.9,0.4-17.9,0.7-27.1,1C785.1,230.8,775.7,231.2,765.8,231.5z"/>
			<path class="st2" d="M498.2,306.9c-8.3-0.2-16-0.2-23.2-0.2c-44.7,0.8-84.7-14.2-132.1-9.8c42.4-5.7,84.8,5.1,128.1,8.8
				C478.9,306.1,487.9,306.4,498.2,306.9z"/>
			<path class="st2" d="M656.7,187.9c-5.4,2.2-11.2,3.3-17.2,4.3s-12.3,1.9-18.5,3.6c-9-0.4-18-0.9-27.1-1.3s-18-0.9-27.1-1.4
				c10.8-0.3,21.6-0.6,32.3-0.8c5.4-0.1,10.8-0.3,16.2-0.5c15.6-0.8,33.1-2.3,48.3-4.2C663.7,187.5,656.7,187.9,656.7,187.9z"/>
			<path class="st2" d="M198.2,428.5c-15.1-3.2-32.6-5.9-47.5-8.6c32.4,4,62.4,9.4,95.9,8.2c8.1,0.3,16,0.6,24.2,0.9
				c-5.7,0.1-11.3,0.3-17.1,0.4c-5.7,0.1-11.5,0.3-17.5,0.4c-5.9,0.1-12,0.1-18.3-0.1C211.6,429.6,205,429.1,198.2,428.5z"/>
			<path class="st2" d="M149.1,388.1c-53.5-6.5-100.9,7.5-153.3,9.2c39.9-4.3,79.8-11.4,122.8-11.3
				C127.5,386.3,137.5,387,149.1,388.1z"/>
			<path class="st2" d="M590.2,450.5c-17.8-2.1-37.8-4.8-55.2-7.5c22.5,2.7,44.9,5.3,70.5,5.5c10,0.2,20,0.4,30,0.6
				c-6.5,0.2-13.1,0.5-20.4,0.7S599.7,450.4,590.2,450.5z"/>
			<path class="st2" d="M232,329.6c20.5-4.1,42.9-5.6,63.5-9.8c4.7-0.7,10.1-1.5,15.6-2s11.1-0.9,16.1-0.9
				c-6.2,0.7-12.5,1.8-18.7,2.8s-12.4,2.1-18.7,2.7c-12.5,1.6-25,4.4-37.5,5.5C246.1,328.6,239.3,329.1,232,329.6z"/>
			<path class="st2" d="M584.2,166c-19-0.4-32.4-0.7-45.7-1c16.9-0.6,33-1.4,51-1.7c6-0.1,12.7,0,19.5,0.2c6.9,0.1,13.9,0,20.6-0.3
				c-7.9,0.8-15.8,1.4-23.4,1.8C598.6,165.3,591.1,165.7,584.2,166z"/>
			<path class="st2" d="M837.3,342.8c-18.5-3.5-38.5-8.9-58.5-10.2c37.4,1.2,67.4,12.1,104.8,13.3c-7.5,0-12.5,0.1-20-0.4
				C856.1,345.1,847.6,344.2,837.3,342.8z"/>
			<path class="st2" d="M406.7,292.3c-4-2.6-11.5-5.3-18.9-3.9c32.4-1.5,57.4,10.8,89.8,9.2c-15,0.1-29.9,1.5-44.2-2.3
				C425.9,294.5,417.1,293.5,406.7,292.3z"/>
			<path class="st2" d="M184.2,420.6c-16.1-2.1-31.1-4.8-46.1-7.5c32.4,1.2,62.4,8,94.8,10.6c-7.5,0-15,0.1-22.5-0.8
				C202.9,422.4,194.4,421.7,184.2,420.6z"/>
			<path class="st2" d="M34.5,116.8c-15-0.3-30-1.7-45-3c29.9-0.1,62.4,1.1,92.3,3.7c-7.5,0-15,0.1-21.8-0.4
				C52.5,117,44.2,116.9,34.5,116.8z"/>
			<path class="st2" d="M539.3,142.3c-9.2,0.5-17.8,1.1-28.6,1.4c-5,0.2-20.3-0.1-20.2-0.2c0.4-0.6,3.8-1.3,6.2-1.9
				C510.8,141.9,524.9,142.1,539.3,142.3z"/>
			<path class="st2" d="M504.7,316.2c-7.9-1.6-15.3-1.5-22.8-1.5c10,0,20-0.4,29.6-0.1c9.7,0.4,19,1.5,27.8,4.2
				c-5-1.4-10-1.4-16.1-1.8C517.8,316.6,511.8,316.4,504.7,316.2z"/>
			<path class="st2" d="M538.4,385.5c-6.9,0.6-13.3,1.2-22.6,1.6c-4.9,0.2-21,0.1-21.4,0c-1.8-0.6,0.1-1.2,0.7-1.9
				C509.3,385.3,523.5,385.4,538.4,385.5z"/>
			<path class="st2" d="M353.8,6.5C346,6,338.3,5.5,330.5,5c14.1-0.3,27.9-0.8,42.3-0.9c5-0.1,11.5,0.5,17.3,0.8
				C379.5,5.4,368.7,5.9,353.8,6.5z"/>
			<path class="st2" d="M887,248.3c-6.9,0.6-13.3,1.2-22.6,1.6c-4.9,0.2-21,0.1-21.4,0c-1.8-0.6,0.1-1.2,0.7-1.9
				C857.9,248.1,872.1,248.2,887,248.3z"/>
			<path class="st2" d="M889.5,353.6c-18.3,0.7-33.2-0.6-50.7-3.2c12.5-4.2,20,4.1,29,2.2C875.1,353.2,882.3,353.4,889.5,353.6z"/>
			<path class="st2" d="M884.6,179.5c-7.3,0.1-14.6,0.2-21.8,0.3c-22.3-1-47.3,0.5-67.3-6.3c22.5,2.7,44.9,6.7,67.1,5.8
				C869.9,179.4,877.2,179.4,884.6,179.5C884.5,179.6,884.6,179.5,884.6,179.5z"/>
			<path class="st2" d="M778.2,235.6c5.5-0.2,11.1-0.6,16.6-0.8c5.6-0.3,11.2-0.5,16.9-0.5c8.7-0.1,17.8,0.7,26.7,1.2
				c-6,0.3-12.9,0.9-18,0.8c-7.2,0-14.3-0.1-21.3-0.3C792.2,235.9,785.2,235.8,778.2,235.6z"/>
			<path class="st2" d="M800.7,410.6c-6.5-2-11.5-2-19-3.3c20,1.3,42.4,1.2,62.4,3.8c-7.5,0-15,0.1-21.5,0.1
				C815.4,411.1,808.1,410.8,800.7,410.6z"/>
			<path class="st2" d="M697.7,133.3c-2.1,0.6-7.1-0.7-9.6-0.7c17.5-1.5,34.9-1.6,52.4-1.6c-7.5,0-15,0.1-21.4,0.6
				C712.1,132,705,132.6,697.7,133.3z"/>
			<path class="st2" d="M587.1,223.9c-15.1,1.4-30,2.8-45,0.2c7.5-4.2,15-0.1,23.2-0.8C572.5,223.5,579.7,223.7,587.1,223.9z"/>
			<path class="st2" d="M502.5,54.6c-6.9,0.1-16.9,0.1-24.4,0.2c10-1.4,20.6-2.9,31.2-4.1c5.3-0.6,10.6-1.2,15.8-1.7
				s10.4-1,15.3-1.3c-5,1.4-12.5,1.4-17.6,3.4C516.8,52.1,510.2,53.3,502.5,54.6z"/>
			<path class="st2" d="M584.6,88.2c-20.7-1.1-40.6,4.5-60.2,6.5c-5,0.9-10.1,1.7-15.3,2.4c-5.2,0.7-10.4,1.4-15.8,1.9
				c5-0.9,10-1.9,15-2.7s10-1.7,15-2.5c20.7-2.5,40.6-5.3,61.1-5.6C584.5,88.2,584.6,88.2,584.6,88.2z"/>
			<path class="st2" d="M38.6,78.5c-14.3-2.1-29.3-0.7-44.3-3.4c7.5-5.6,15,1.3,22.1,0.4C23.7,76.4,31.1,77.4,38.6,78.5z"/>
			<path class="st2" d="M41.2,310.6c-9.2,0.5-17.8,1.1-28.6,1.4c-5,0.2-20.3-0.1-20.2-0.2c0.4-0.6,3.8-1.3,6.2-1.9
				C12.7,310.2,26.8,310.4,41.2,310.6z"/>
			<path class="st2" d="M449.5,133.9c-10.9-0.1-20.8-0.1-30.8-2.8c5,1.4,10,1.3,15.7,1.6C439.4,133.2,444.5,133.6,449.5,133.9z"/>
			<path class="st2" d="M583,248.6c-5.9-1.2-10.9-1.1-15.9-2.5c10,0,22.4-1.5,33,1.9C594.4,248.2,588.7,248.4,583,248.6z"/>
			<path class="st2" d="M868.4,367c6,0.1,12.1-0.3,17.6-0.2c5.4,0,14.5,0.6,14.1,0.9s-10.3,0.6-16.1,0.9
				C878.9,368.1,873.7,367.7,868.4,367z"/>
			<path class="st2" d="M377.7,135.2c-3.9-1-11.4-1-16.4-3.8c12.5,2.7,25,1.3,36,6.4C390.7,136.9,384.2,136,377.7,135.2z"/>
			<path class="st2" d="M395.7,157.8c-11.8-1.6-26.8-3-36.8-8.4c5,2.7,12.5,4.1,19,3.7C383.8,154.7,389.8,156.3,395.7,157.8z"/>
			<path class="st2" d="M862.5,82.1c3.9-0.8,7.9-1.6,11.8-2.4c-6.2,0.7-12.5,1.4-18.6,2C855.8,81.8,862.5,82.1,862.5,82.1z"/>
			<path class="st2" d="M376,256.9c-5.8-0.2-8.3-0.2-13.3-1.6c10,0,19.9-1.5,30.5,0.9C387.4,256.4,381.7,256.6,376,256.9z"/>
			<path class="st2" d="M370.2,403.2c9.9-2.3,22.4-2.4,32.4,0.3c-5,0-12.5,0.1-17.2,0.5C380.3,403.8,375.2,403.5,370.2,403.2z"/>
			<path class="st2" d="M318.5,70.7c5.8,0,11.8-0.2,17.3-0.1c5.4,0.1,14.4,0.8,14.1,1.1c-0.4,0.3-10.3,0.5-16,0.6
				C328.7,71.9,323.6,71.3,318.5,70.7z"/>
			<path class="st2" d="M899.8,74.6c-5.7,0.3-11.7,0.9-17.1,0.9c-5.4,0-10.2-0.5-15.3-0.8c5.7-0.3,11.5-0.6,17.2-0.9
				C889.6,74,894.7,74.3,899.8,74.6z"/>
			<path class="st2" d="M534.6,419.3c-4.8-2.5-12.3,0.3-14.8-2.4c10,0,22.5,2.7,32.2,3.1C546.2,419.7,540.4,419.5,534.6,419.3z"/>
			<path class="st2" d="M335.7,451.4c-5.1-0.3-14.3-0.6-14-0.9s10.6-0.9,15.9-0.9c5.4,0,10.2,0.5,15.3,0.8
				C347.1,450.8,341.4,451.1,335.7,451.4z"/>
			<path class="st2" d="M283.9,265.8c-5.9,2.4-8.4,1.1-13.4-0.3c10-1.4,19.9-2.9,29.7-2.4C294.8,263.9,289.4,264.8,283.9,265.8z"/>
			<path class="st2" d="M283.6,277.1c-3.9,1.2-8.9,1.3-13.9,2.7c5-2.1,9.3-3.5,14.1-4.4c4.7-0.9,9.8-1.3,16.1-1.5
				C294.6,274.9,289.2,276,283.6,277.1z"/>
			<path class="st2" d="M583.5,135c-5.1-0.3-14.4-0.6-14-0.9c0.4-0.3,10.3-0.6,16-0.9c5.1,0.3,10.1,0.6,15.2,0.9
				C595,134.4,589.2,134.7,583.5,135z"/>
			<path class="st2" d="M483.1,23.9c-5.1-2.2-10.1-0.8-15-0.8c10-1.4,22.4-2.9,32.3-0.7C494.6,22.9,488.8,23.4,483.1,23.9z"/>
			<path class="st2" d="M634.8,422.3c-5.1-0.3-14.4-0.6-14-0.9s10.3-0.6,16-0.9c5.1,0.3,10.1,0.6,15.2,0.9
				C646.2,421.7,640.5,422,634.8,422.3z"/>
			<path class="st2" d="M794.9,365.4c-10.9-1-23.4-2.3-33.4-5c5,0,12.5-0.1,17.1,1.1C784,362.7,789.4,364,794.9,365.4z"/>
			<path class="st2" d="M467.6,273.8c5,0.2,10.6-0.1,16.2,0.1c5.6,0.1,11.2,0.6,16.1,2.2c-5-0.2-9.9-0.3-16-0.2
				C478.5,275.2,473.1,274.5,467.6,273.8z"/>
			<path class="st2" d="M883.5,266.3c-5.1-0.3-14.3-0.6-14-0.9s10.6-0.9,15.9-0.9c5.4,0,10.2,0.5,15.3,0.8
				C895,265.6,889.3,266,883.5,266.3z"/>
			<path class="st2" d="M183.6,69.2c-3.9-1-8.8,0.4-13.8,3.2c7.5-4.2,19.9-5.6,30.7-6.8C194.8,66.7,189.2,67.9,183.6,69.2z"/>
			<path class="st2" d="M183.7,80.1c-3.9,0.5-8.9,0.6-13.9,2c10-4.2,17.4-5.6,30.8-5.5C194.9,77.6,189.3,78.8,183.7,80.1z"/>
			<path class="st2" d="M169.2,112.8c10.7,1,20.6-5.9,33.1-1.9c-5,0-12.5,0.1-18.1,1.7C179.2,112.6,174.2,112.7,169.2,112.8z"/>
			<path class="st2" d="M165.2,288c9.8-2.2,22.3-0.9,32.2-0.9c-5,2.8-12.5,0.1-17.3,2.2C175.1,289,170.1,288.5,165.2,288z"/>
			<path class="st2" d="M185.3,435.5c-4.6-0.5-9.6-0.4-14.6-3.2c10,1.3,22.5,1.3,32.2,3.9C197,436.1,191.2,435.8,185.3,435.5z"/>
			<path class="st2" d="M133.9,10.6c-5.1,1.6-10.1-1.1-15.1-1.1c10,0,22.4-1.5,32.3-0.2C145.4,9.7,139.6,10.2,133.9,10.6z"/>
			<path class="st2" d="M134.1,250.5c-4.2,0.9-9.2-1.8-14.2-1.8c10-1.4,20,1.3,31,1.8C145.3,250.6,139.6,250.6,134.1,250.5z"/>
			<path class="st2" d="M833.3,200c-5.2,1.1-10.2-1.7-15.2-1.6c10,0,22.4-1.5,32.5,0.9C844.8,199.5,839.1,199.8,833.3,200z"/>
			<path class="st2" d="M833,138.6c-5.3-2.6-12.7,0.2-15.2-2.5c10,1.3,22.4-0.1,32.5,2.2C844.5,138.6,838.8,138.7,833,138.6z"/>
			<path class="st2" d="M69.2,431.8c9.2-1.8,19.1-4.6,29.1-3.3c-2.5,2.8-10,0-14.4,2.9C79,431.5,74.1,431.7,69.2,431.8z"/>
			<path class="st2" d="M430.2,86.5c-4.3,0.3-9.3-2.4-14.3-2.4c10-1.4,20,2.7,31,3.4C441.3,87.3,435.7,86.9,430.2,86.5z"/>
			<path class="st2" d="M52.7,280.5c-5.7,0.3-11.7,0.9-17.1,0.9s-10.2-0.5-15.3-0.8c5.7-0.3,11.5-0.6,17.2-0.9
				C42.5,279.9,47.6,280.2,52.7,280.5z"/>
			<path class="st2" d="M415.7,91.3c10.2,1.1,20.2,1,30.2,3.7c-5,0-10,1.4-15.7-0.8C425.4,93.4,420.6,92.4,415.7,91.3z"/>
			<path class="st2" d="M52.9,327.5c-5.7,0.3-11.7,0.9-17.1,0.9s-10.2-0.5-15.3-0.8c5.7-0.3,11.5-0.6,17.2-0.9
				C42.8,326.9,47.8,327.2,52.9,327.5z"/>
			<path class="st2" d="M-30.8,9.8c5.7-0.3,11.7-0.8,17.1-0.9c5.4,0,14.4,0.5,14.1,0.8C0,10-9.9,10.3-15.6,10.6
				C-20.7,10.4-25.8,10.1-30.8,9.8z"/>
			<path class="st2" d="M-15.6,43.9c-5.1-0.3-14.4-0.6-14-0.9c0.4-0.3,10.3-0.6,16-0.9c5.1,0.4,10.1,0.9,15.2,1.5
				C-4.1,43.6-9.9,43.7-15.6,43.9z"/>
			<path class="st2" d="M-30.5,90c9.9-2.4,22.4,0.3,32.4,0.3c-5,0-12.5,0.1-17.1,0.7C-20.3,90.6-25.4,90.3-30.5,90z"/>
			<path class="st2" d="M3.1,377.6c-5.6,0.3-11.6,0.8-16.9,0.7c-5.4,0-10.2-0.5-15.3-0.8c5.7-0.3,11.5-0.6,17.2-0.9
				C-6.9,377-1.9,377.3,3.1,377.6z"/>
			<path class="st2" d="M-13.7,439.3c-5.1-0.3-14.4-0.6-14-0.9c0.4-0.3,10.3-0.6,16-0.9c5.1,0.3,10.1,0.6,15.2,0.8
				C-2.2,438.6-8,439-13.7,439.3z"/>
			<path class="st2" d="M-28.7,457.7c5.7-0.3,11.7-0.8,17.1-0.9c5.4,0,14.4,0.5,14.1,0.8c-0.4,0.3-10.3,0.6-16,0.9
				C-18.6,458.3-23.6,458-28.7,457.7z"/>
		</g>
	</g>
	<g>
		<path class="st3" d="M540.6,492.8c-50-5.8-100.7-21.2-152.3-6.5"/>
		<path class="st3" d="M535.1,528.7c-52.8-3.6-104.5-2.4-155.5-0.1"/>
		<path class="st3" d="M411.8,512.3c-7.9,1-15.5,1.9-23,2.8c-7.5,0.9-14.9,1.8-22.3,2.5"/>
		<path class="st3" d="M286.1,557c8.8-0.1,17.8-0.2,27.1-0.3"/>
		<path class="st3" d="M267.5,494.8c35.4-3.1,70.5,6.6,106.1-0.9"/>
		<path class="st3" d="M428.5,569.2c6,0.2,12.1,0.3,18.2,0.5"/>
		<path class="st3" d="M681.5,472.6c36.7,1.8,69.5-9.2,104.8-13.8"/>
		<path class="st3" d="M802.4,490.9c7.2-0.4,14.3-0.3,21.2-0.1c26.2,2.6,48.9,7.5,74,12.3"/>
		<path class="st3" d="M286.8,475.4c23.7,2,46.4,2.1,69,0.6"/>
		<path class="st3" d="M549.4,559.5c7.9,0.6,15.7,1.3,23.5,1.9"/>
		<path class="st3" d="M424.5,502.8c-10.1,1.5-20.8,3.1-31.5,4.4c-5.4,0.7-10.7,1.3-16,1.8"/>
		<path class="st3" d="M585.7,486.1c-5.8-0.1-11.9,0.1-17.4-0.1"/>
		<path class="st3" d="M16.5,475.2c5.5,0,10.3,0.7,15.4,1.1"/>
		<path class="st3" d="M401.8,539.9c5.8-0.5,11.6-1.1,17.4-1.5c5.1,2.6,10.1,1.1,15.2,1.1"/>
		<path class="st3" d="M704.8,493.1c5.7-1.2,11.4-2.5,17.1-4c3.9,1.2,8.9-0.4,14-3.5"/>
		<path class="st3" d="M735.9,474.5c-10.1,4.7-17.6,6.3-31.1,6"/>
		<path class="st3" d="M786.7,558.4c-10.1,0-22.7,1.5-32.6-0.1"/>
		<path class="st3" d="M487.5,469.7c-10.1,1.5-20.1-3.3-31.2-4.2"/>
	</g>
</g>
<g>
	
		<radialGradient id="SVGID_1_" cx="97.2" cy="502.1" r="95.9" gradientTransform="matrix(1 0 0 -1 0 600)" gradientUnits="userSpaceOnUse">
		<stop  offset="0" style="stop-color:#000000"/>
		<stop  offset="7.510757e-02" style="stop-color:#1D1A19"/>
		<stop  offset="0.2357" style="stop-color:#554E4A"/>
		<stop  offset="0.3847" style="stop-color:#817771"/>
		<stop  offset="0.5173" style="stop-color:#A1948D"/>
		<stop  offset="0.6287" style="stop-color:#B4A69E"/>
		<stop  offset="0.7054" style="stop-color:#BBACA4"/>
		<stop  offset="0.7541" style="stop-color:#CBBBB2"/>
		<stop  offset="0.8268" style="stop-color:#DCCBC2"/>
		<stop  offset="0.9055" style="stop-color:#E7D5CB"/>
		<stop  offset="1" style="stop-color:#EAD8CE"/>
	</radialGradient>
	<circle class="st4" cx="97.2" cy="97.9" r="95.9"/>
	
		<linearGradient id="SVGID_2_" gradientUnits="userSpaceOnUse" x1="28.6" y1="502.2" x2="167.8" y2="502.2" gradientTransform="matrix(1 0 0 -1 0 600)">
		<stop  offset="6.756756e-02" style="stop-color:#EAD8CE"/>
		<stop  offset="0.6892" style="stop-color:#BBACA4"/>
		<stop  offset="0.8081" style="stop-color:#BAABA3"/>
		<stop  offset="0.8843" style="stop-color:#B8A9A1"/>
		<stop  offset="0.9117" style="stop-color:#B1A39B"/>
		<stop  offset="0.9313" style="stop-color:#A69891"/>
		<stop  offset="0.9471" style="stop-color:#958982"/>
		<stop  offset="0.9607" style="stop-color:#7F746F"/>
		<stop  offset="0.9727" style="stop-color:#635B57"/>
		<stop  offset="0.9835" style="stop-color:#433E3B"/>
		<stop  offset="0.9932" style="stop-color:#1F1C1B"/>
		<stop  offset="1" style="stop-color:#000000"/>
	</linearGradient>
	<ellipse class="st5" cx="98.2" cy="97.8" rx="69.6" ry="68.4"/>
	<circle class="st6" cx="97.2" cy="97.5" r="55.6"/>
	<circle class="st7" cx="68.8" cy="137" r="3.1"/>
	<ellipse transform="matrix(0.9746 -0.2239 0.2239 0.9746 -28.7687 20.2689)" class="st7" cx="75" cy="137" rx="3.1" ry="3.1"/>
	<circle class="st7" cx="74.3" cy="143.2" r="3.1"/>
	<circle class="st7" cx="81.4" cy="140.2" r="4.1"/>
	<circle class="st7" cx="83.9" cy="147.3" r="3.1"/>
	
		<ellipse transform="matrix(0.9999 -1.034677e-02 1.034677e-02 0.9999 -1.4768 0.9243)" class="st7" cx="88.6" cy="143.2" rx="3.1" ry="3.1"/>
	<ellipse class="st7" cx="88.6" cy="149.1" rx="2" ry="2.4"/>
	<circle class="st7" cx="93.8" cy="147.3" r="3.1"/>
	<circle class="st7" cx="88.5" cy="136.6" r="3.1"/>
	<circle class="st7" cx="101.6" cy="147.6" r="4.4"/>
	
		<ellipse transform="matrix(0.3407 -0.9402 0.9402 0.3407 -70.1964 185.0034)" class="st7" cx="96.8" cy="142.6" rx="2.4" ry="2.4"/>
	<circle class="st7" cx="94.7" cy="137" r="3.1"/>
	
		<ellipse transform="matrix(0.9999 -1.034677e-02 1.034677e-02 0.9999 -1.5295 1.1367)" class="st7" cx="109.1" cy="148.4" rx="3.1" ry="3.1"/>
	<circle class="st7" cx="106.3" cy="143.2" r="2.2"/>
	
		<ellipse transform="matrix(9.224062e-02 -0.9957 0.9957 9.224062e-02 -46.1894 228.5973)" class="st7" cx="102.3" cy="139.6" rx="3.1" ry="3.1"/>
	<ellipse transform="matrix(0.668 -0.7442 0.7442 0.668 -67.2523 131.1998)" class="st7" cx="113.4" cy="141" rx="5.1" ry="4.7"/>
	<circle class="st7" cx="114.7" cy="147.8" r="1.5"/>
	<ellipse class="st7" cx="118.6" cy="145.9" rx="2.1" ry="2.2"/>
	<circle class="st7" cx="107.6" cy="135.8" r="3.1"/>
	<circle class="st7" cx="79.7" cy="133.2" r="3.1"/>
	<circle class="st7" cx="121.7" cy="140.5" r="3.1"/>
	<circle class="st7" cx="85.2" cy="131.1" r="3.1"/>
	<circle class="st7" cx="97.2" cy="131.1" r="3.1"/>
	
		<ellipse transform="matrix(0.9917 -0.1285 0.1285 0.9917 -16.2616 16.3513)" class="st7" cx="118.6" cy="134.2" rx="3.1" ry="3.1"/>
	<ellipse class="st7" cx="112.9" cy="133.2" rx="2.2" ry="2.6"/>
	<circle class="st7" cx="127.5" cy="140.9" r="2.3"/>
	<circle class="st7" cx="131.3" cy="138.1" r="2.3"/>
	<circle class="st7" cx="135" cy="135" r="2.3"/>
	<circle class="st7" cx="127.9" cy="136.6" r="1.5"/>
	<circle class="st7" cx="131.6" cy="135" r="0.7"/>
	<circle class="st7" cx="121.7" cy="145.1" r="0.7"/>
	<circle class="st7" cx="123.4" cy="144.7" r="0.7"/>
	<circle class="st7" cx="125.1" cy="143.6" r="0.7"/>
	
		<ellipse transform="matrix(0.2302 -0.9731 0.9731 0.2302 -32.9229 231.9575)" class="st7" cx="130.2" cy="136.8" rx="3.1" ry="3.1"/>
	
		<ellipse transform="matrix(6.480910e-03 -1 1 6.480910e-03 -6.668065e-02 261.5327)" class="st7" cx="131.6" cy="130.8" rx="3.1" ry="3.1"/>
	
		<ellipse transform="matrix(0.2302 -0.9731 0.9731 0.2302 -23.5278 236.0233)" class="st7" cx="137.4" cy="132.9" rx="3.1" ry="3.1"/>
	
		<ellipse transform="matrix(0.2302 -0.9731 0.9731 0.2302 -17.0747 228.7748)" class="st7" cx="136.1" cy="125.2" rx="4.1" ry="4.1"/>
	
		<ellipse transform="matrix(0.2302 -0.9731 0.9731 0.2302 -10.5986 235.4889)" class="st7" cx="143.5" cy="124.4" rx="3.1" ry="3.1"/>
	
		<ellipse transform="matrix(0.2201 -0.9755 0.9755 0.2201 -6.3145 229.9512)" class="st7" cx="140.7" cy="118.9" rx="3.1" ry="3.1"/>
	<ellipse transform="matrix(0.2302 -0.9731 0.9731 0.2302 -4.2281 235.1606)" class="st7" cx="146.5" cy="120.3" rx="2" ry="2.4"/>
	<ellipse transform="matrix(0.2302 -0.9731 0.9731 0.2302 0.5335 230.2991)" class="st7" cx="145.8" cy="114.8" rx="3.1" ry="3.1"/>
	<ellipse transform="matrix(0.2302 -0.9731 0.9731 0.2302 9.4482 226.5972)" class="st7" cx="148" cy="107.3" rx="4.4" ry="4.4"/>
	<ellipse transform="matrix(0.548 -0.8365 0.8365 0.548 -28.4916 168.746)" class="st7" cx="141.9" cy="110.7" rx="2.4" ry="2.4"/>
	
		<ellipse transform="matrix(0.2201 -0.9755 0.9755 0.2201 19.6159 224.9505)" class="st7" cx="150.5" cy="100.2" rx="3.1" ry="3.1"/>
	
		<ellipse transform="matrix(0.2302 -0.9731 0.9731 0.2302 12.4705 219.1477)" class="st7" cx="144.8" cy="101.7" rx="2.2" ry="2.2"/>
	<ellipse transform="matrix(0.8213 -0.5704 0.5704 0.8213 -28.0423 99.1038)" class="st7" cx="144.2" cy="94.3" rx="4.7" ry="5.1"/>
	<ellipse transform="matrix(0.2302 -0.9731 0.9731 0.2302 24.2459 219.9104)" class="st7" cx="151.1" cy="94.6" rx="1.5" ry="1.5"/>
	<ellipse transform="matrix(0.2302 -0.9731 0.9731 0.2302 27.7033 215.7243)" class="st7" cx="150.2" cy="90.4" rx="2.1" ry="2.2"/>
	
		<ellipse transform="matrix(0.2302 -0.9731 0.9731 0.2302 -22.6826 221.8986)" class="st7" cx="128.9" cy="125.3" rx="3.1" ry="3.1"/>
	<ellipse transform="matrix(0.2302 -0.9731 0.9731 0.2302 28.3617 208.0485)" class="st7" cx="145.7" cy="86.1" rx="3.1" ry="3.1"/>
	
		<ellipse transform="matrix(0.2302 -0.9731 0.9731 0.2302 -17.5388 216.6136)" class="st7" cx="128.1" cy="119.4" rx="3.1" ry="3.1"/>
	<ellipse transform="matrix(0.2302 -0.9731 0.9731 0.2302 35.082 205.4875)" class="st7" cx="147.4" cy="80.6" rx="2.3" ry="2.3"/>
	<ellipse transform="matrix(0.2302 -0.9731 0.9731 0.2302 37.9268 200.3345)" class="st7" cx="145.6" cy="76.2" rx="2.3" ry="2.3"/>
	<ellipse transform="matrix(0.2302 -0.9731 0.9731 0.2302 40.4544 194.8413)" class="st7" cx="143.4" cy="71.9" rx="2.3" ry="2.3"/>
	<ellipse transform="matrix(0.2302 -0.9731 0.9731 0.2302 33.2766 200.4104)" class="st7" cx="143.3" cy="79.2" rx="1.5" ry="1.5"/>
	<ellipse transform="matrix(0.2302 -0.9731 0.9731 0.2302 36.6396 196.7274)" class="st7" cx="142.7" cy="75.2" rx="0.7" ry="0.7"/>
	<ellipse transform="matrix(0.2302 -0.9731 0.9731 0.2302 30.8132 213.2767)" class="st7" cx="150.2" cy="87.2" rx="0.7" ry="0.7"/>
	<ellipse transform="matrix(0.2302 -0.9731 0.9731 0.2302 32.4627 211.8507)" class="st7" cx="150.1" cy="85.4" rx="0.7" ry="0.7"/>
	<ellipse transform="matrix(0.2302 -0.9731 0.9731 0.2302 33.8566 209.794)" class="st7" cx="149.5" cy="83.5" rx="0.7" ry="0.7"/>
	<ellipse transform="matrix(0.9523 -0.3051 0.3051 0.9523 -22.3035 19.0846)" class="st7" cx="49.9" cy="80.9" rx="3.1" ry="3.1"/>
	<ellipse transform="matrix(0.9523 -0.3051 0.3051 0.9523 -24.6666 18.1425)" class="st7" cx="45.7" cy="88" rx="3.1" ry="3.1"/>
	<ellipse transform="matrix(0.9523 -0.3051 0.3051 0.9523 -27.891 18.333)" class="st7" cx="44.7" cy="98.4" rx="3.1" ry="3.1"/>
	<ellipse transform="matrix(0.9523 -0.3051 0.3051 0.9523 -29.4604 18.4865)" class="st7" cx="44.4" cy="103.5" rx="2.4" ry="2"/>
	<ellipse transform="matrix(0.9523 -0.3051 0.3051 0.9523 -30.6169 19.6968)" class="st7" cx="47.7" cy="107.8" rx="3.1" ry="3.1"/>
	<ellipse transform="matrix(0.9523 -0.3051 0.3051 0.9523 -32.7956 20.7195)" class="st7" cx="49.9" cy="115.3" rx="4.4" ry="4.4"/>
	<ellipse transform="matrix(0.9491 -0.3149 0.3149 0.9491 -36.03 22.3977)" class="st7" cx="51.3" cy="122.7" rx="3.1" ry="3.1"/>
	<ellipse transform="matrix(0.9523 -0.3051 0.3051 0.9523 -33.501 22.5872)" class="st7" cx="55.5" cy="118.5" rx="2.2" ry="2.2"/>
	<ellipse transform="matrix(0.4091 -0.9125 0.9125 0.4091 -78.379 128.0804)" class="st7" cx="59.7" cy="124.6" rx="4.7" ry="5.1"/>
	<ellipse transform="matrix(0.9523 -0.3051 0.3051 0.9523 -36.4295 22.4748)" class="st7" cx="53.7" cy="127.8" rx="1.5" ry="1.5"/>
	<ellipse transform="matrix(0.9523 -0.3051 0.3051 0.9523 -37.2609 23.5495)" class="st7" cx="56.7" cy="131" rx="2.2" ry="2.1"/>
	<ellipse transform="matrix(0.9523 -0.3051 0.3051 0.9523 -37.376 25.4398)" class="st7" cx="62.7" cy="132.3" rx="3.1" ry="3.1"/>
	<ellipse transform="matrix(0.9523 -0.3051 0.3051 0.9523 -36.4886 27.273)" class="st7" cx="69" cy="130.4" rx="3.1" ry="3.1"/>
	<ellipse transform="matrix(0.9523 -0.3051 0.3051 0.9523 -39.3569 28.3429)" class="st7" cx="71" cy="140.1" rx="0.7" ry="0.7"/>
	<ellipse transform="matrix(0.9523 -0.3051 0.3051 0.9523 -38.0135 24.1635)" class="st7" cx="58.3" cy="133.7" rx="0.7" ry="0.7"/>
	<ellipse transform="matrix(0.9523 -0.3051 0.3051 0.9523 -39.0161 25.1345)" class="st7" cx="60.9" cy="137.4" rx="0.7" ry="0.7"/>
	<ellipse transform="matrix(0.9523 -0.3051 0.3051 0.9523 -39.0985 25.9925)" class="st7" cx="63.6" cy="138.1" rx="0.7" ry="0.7"/>
	
		<linearGradient id="SVGID_3_" gradientUnits="userSpaceOnUse" x1="167.2166" y1="502.0169" x2="192.0166" y2="502.0169" gradientTransform="matrix(-1 0 0 1 359.2166 -404.1169)">
		<stop  offset="6.756756e-02" style="stop-color:#EAD8CE"/>
		<stop  offset="0.6892" style="stop-color:#BBACA4"/>
		<stop  offset="0.8081" style="stop-color:#BAABA3"/>
		<stop  offset="0.8843" style="stop-color:#B8A9A1"/>
		<stop  offset="0.9117" style="stop-color:#B1A39B"/>
		<stop  offset="0.9313" style="stop-color:#A69891"/>
		<stop  offset="0.9471" style="stop-color:#958982"/>
		<stop  offset="0.9607" style="stop-color:#7F746F"/>
		<stop  offset="0.9727" style="stop-color:#635B57"/>
		<stop  offset="0.9835" style="stop-color:#433E3B"/>
		<stop  offset="0.9932" style="stop-color:#1F1C1B"/>
		<stop  offset="1" style="stop-color:#000000"/>
	</linearGradient>
	<ellipse class="st8" cx="179.6" cy="97.9" rx="12.4" ry="8.8"/>
	
		<linearGradient id="SVGID_4_" gradientUnits="userSpaceOnUse" x1="15.5" y1="572.7" x2="15.5" y2="572.7" gradientTransform="matrix(1 0 0 -1 0 600)">
		<stop  offset="6.756756e-02" style="stop-color:#FFFFFF"/>
		<stop  offset="0.6189" style="stop-color:#BBACA4"/>
		<stop  offset="0.8081" style="stop-color:#BAABA3"/>
		<stop  offset="0.8843" style="stop-color:#B8A9A1"/>
		<stop  offset="0.9117" style="stop-color:#B1A39B"/>
		<stop  offset="0.9313" style="stop-color:#A69891"/>
		<stop  offset="0.9471" style="stop-color:#958982"/>
		<stop  offset="0.9607" style="stop-color:#7F746F"/>
		<stop  offset="0.9727" style="stop-color:#635B57"/>
		<stop  offset="0.9835" style="stop-color:#433E3B"/>
		<stop  offset="0.9932" style="stop-color:#1F1C1B"/>
		<stop  offset="1" style="stop-color:#000000"/>
	</linearGradient>
	<path class="st9" d="M15.5,27.3"/>
	
		<linearGradient id="SVGID_5_" gradientUnits="userSpaceOnUse" x1="108.9637" y1="544.0992" x2="123.4332" y2="544.0992" gradientTransform="matrix(0.9972 -7.477073e-02 -7.477073e-02 -0.9972 41.0134 607.1655)">
		<stop  offset="6.756756e-02" style="stop-color:#FFFFFF"/>
		<stop  offset="0.8081" style="stop-color:#BAABA3"/>
		<stop  offset="0.8843" style="stop-color:#B8A9A1"/>
		<stop  offset="0.9117" style="stop-color:#B1A39B"/>
		<stop  offset="0.9313" style="stop-color:#A69891"/>
		<stop  offset="0.9471" style="stop-color:#958982"/>
		<stop  offset="0.9607" style="stop-color:#7F746F"/>
		<stop  offset="0.9727" style="stop-color:#635B57"/>
		<stop  offset="0.9835" style="stop-color:#433E3B"/>
		<stop  offset="0.9932" style="stop-color:#1F1C1B"/>
		<stop  offset="1" style="stop-color:#000000"/>
	</linearGradient>
	<path class="st10" d="M110.6,50.5c-1.3,0.6-2,2-1.8,3.3c0.3,1.5,1.6,2.6,3.2,2.6c1.1-0.1,2.9-0.2,4.6,0.7c0.6,0.3,1.1,0.6,1.8,1.2
		c3.9,3.1,4.6,4.3,5,4.1c1.1-0.5-0.2-8.7-4.2-11.3c-1.4-0.9-3.7-1.6-4.1-1.7c-0.9-0.3-1.5-0.4-2.1-0.3C111.8,49.2,111,50,110.6,50.5
		z"/>
</g>
<g>
	<path class="st11" d="M51.9,422.9l40.3-98c2.5-6.1,9.6-9,15.7-6.5l1.8,0.8c6.1,2.5,9,9.6,6.5,15.7l-40.3,98"/>
	<path class="st12" d="M111.2,347.2l-35.5,86.3c-1.9,4.7-7.4,7-12.1,5l0,0c-4.7-1.9-7-7.4-5-12.1l35.5-86.3"/>
	<path class="st12" d="M66.6,406.8l26.7-65c1.2-2.9,4.6-4.3,7.5-3.1l0,0c2.9,1.2,4.3,4.6,3.1,7.5l-26.7,65"/>
</g>
<g>
	<path class="st13" d="M47,308.4l77.9-29.9c4.9-1.9,10.2,0.2,11.9,4.6l0.5,1.3c1.7,4.4-0.9,9.5-5.8,11.4l-77.9,29.9"/>
	<path class="st14" d="M121.7,299.5l-68.6,26.4c-3.7,1.4-7.9-0.2-9.2-3.5l0,0c-1.3-3.4,0.7-7.3,4.4-8.8l68.6-26.4"/>
	<path class="st14" d="M64,307.6l51.7-19.9c2.3-0.9,4.9,0.1,5.7,2.2l0,0c0.8,2.1-0.4,4.6-2.8,5.4l-51.7,19.9"/>
</g>
<g>
	<path class="st15" d="M166.5,365.2l-38.9-40.6c-2.4-2.5-1.9-7,1.1-9.9l0.9-0.9c3-2.9,7.5-3.2,9.9-0.7l38.9,40.6"/>
	<path class="st16" d="M144.4,318.2l34.3,35.7c1.9,1.9,1.5,5.4-0.9,7.6l0,0c-2.3,2.3-5.8,2.5-7.7,0.5l-34.3-35.7"/>
	<path class="st16" d="M162.4,354l-25.8-26.9c-1.2-1.2-0.9-3.3,0.5-4.7l0,0c1.5-1.4,3.6-1.6,4.8-0.3l25.8,26.9"/>
</g>
<g>
	<path class="st11" d="M58.9,365.6l101.5-30.4c6.3-1.9,13,1.7,14.9,8.1l0.6,1.9c1.9,6.3-1.7,13-8.1,14.9L66.3,390.5"/>
	<path class="st12" d="M155.1,363.9l-89.4,26.8c-4.9,1.5-10.1-1.3-11.5-6.2l0,0c-1.5-4.9,1.3-10.1,6.2-11.5l89.4-26.8"/>
	<path class="st12" d="M80.7,366.9l67.3-20.2c3-0.9,6.3,0.8,7.2,3.9l0,0c0.9,3-0.8,6.3-3.9,7.2L84,377.9"/>
</g>
<g>
	
		<linearGradient id="SVGID_6_" gradientUnits="userSpaceOnUse" x1="533.8" y1="384.3" x2="875.7" y2="384.3" gradientTransform="matrix(1 0 0 -1 0 600)">
		<stop  offset="0" style="stop-color:#000000"/>
		<stop  offset="9.208592e-03" style="stop-color:#1D1A19"/>
		<stop  offset="2.889762e-02" style="stop-color:#554E4A"/>
		<stop  offset="4.716134e-02" style="stop-color:#817771"/>
		<stop  offset="6.342202e-02" style="stop-color:#A1948D"/>
		<stop  offset="7.708450e-02" style="stop-color:#B4A69E"/>
		<stop  offset="8.648649e-02" style="stop-color:#BBACA4"/>
		<stop  offset="0.115" style="stop-color:#C1B4AC"/>
		<stop  offset="0.2227" style="stop-color:#D5CBC7"/>
		<stop  offset="0.3409" style="stop-color:#E4DEDB"/>
		<stop  offset="0.4737" style="stop-color:#EFEBEA"/>
		<stop  offset="0.633" style="stop-color:#F5F3F2"/>
		<stop  offset="0.8892" style="stop-color:#F7F5F5"/>
		<stop  offset="0.9494" style="stop-color:#F6F4F3"/>
		<stop  offset="0.9711" style="stop-color:#F4EFEC"/>
		<stop  offset="0.9865" style="stop-color:#F0E6E1"/>
		<stop  offset="0.9989" style="stop-color:#EBD9D0"/>
		<stop  offset="1" style="stop-color:#EAD8CE"/>
	</linearGradient>
	<polygon class="st17" points="772.9,440 533.8,376.1 636.6,-8.6 875.7,55.3 	"/>
	<text transform="matrix(1.044 0.2769 -0.2564 0.9666 669.4402 47.8718)" class="st18 st19">Resume</text>
	<text transform="matrix(1.044 0.2769 -0.2564 0.9666 669.4402 47.8718)" class="st20 st18 st19">Resume</text>
	<text transform="matrix(0.8854 0.234 -0.2556 0.9668 622.3989 73.9099)" class="st18 st21">I attended high school in Coleville, </text>
	<text transform="matrix(0.8854 0.234 -0.2556 0.9668 616.878 94.7924)" class="st18 st21">Utah, and immediately sought out</text>
	<text transform="matrix(0.8854 0.234 -0.2556 0.9668 611.3569 115.6758)" class="st18 st21"> a higher education following my </text>
	<text transform="matrix(0.8854 0.234 -0.2556 0.9668 605.8361 136.5583)" class="st18 st21">graduation. </text>
</g>
<linearGradient id="SVGID_7_" gradientUnits="userSpaceOnUse" x1="502.7" y1="297.1" x2="928.3" y2="297.1" gradientTransform="matrix(1 0 0 -1 0 600)">
	<stop  offset="0" style="stop-color:#000000"/>
	<stop  offset="9.208592e-03" style="stop-color:#1D1A19"/>
	<stop  offset="2.889762e-02" style="stop-color:#554E4A"/>
	<stop  offset="4.716134e-02" style="stop-color:#817771"/>
	<stop  offset="6.342202e-02" style="stop-color:#A1948D"/>
	<stop  offset="7.708450e-02" style="stop-color:#B4A69E"/>
	<stop  offset="8.648649e-02" style="stop-color:#BBACA4"/>
	<stop  offset="0.115" style="stop-color:#C1B4AC"/>
	<stop  offset="0.2227" style="stop-color:#D5CBC7"/>
	<stop  offset="0.3409" style="stop-color:#E4DEDB"/>
	<stop  offset="0.4737" style="stop-color:#EFEBEA"/>
	<stop  offset="0.633" style="stop-color:#F5F3F2"/>
	<stop  offset="0.8892" style="stop-color:#F7F5F5"/>
	<stop  offset="0.9494" style="stop-color:#F6F4F3"/>
	<stop  offset="0.9711" style="stop-color:#F4EFEC"/>
	<stop  offset="0.9865" style="stop-color:#F0E6E1"/>
	<stop  offset="0.9989" style="stop-color:#EBD9D0"/>
	<stop  offset="1" style="stop-color:#EAD8CE"/>
</linearGradient>
<polygon class="st22" points="709.5,537.3 502.7,401.3 721.4,68.5 928.3,204.5 "/>
<text transform="matrix(0.8335 0.5525 -0.5525 0.8335 720.8312 122.164)" class="st18 st23">How To Get</text>
<text transform="matrix(0.8335 0.5525 -0.5525 0.8335 736.5544 184.415)" class="st18 st23">A Job</text>
<text transform="matrix(0.8335 0.5525 -0.5525 0.8335 709.6555 206.8957)" class="st18 st24">By Clayton Taylor</text>
<text transform="matrix(0.8468 0.5558 -0.5487 0.836 649.6723 196.236)" class="st18 st25">Finding a job can be hard. We’ve all </text>
<text transform="matrix(0.8468 0.5558 -0.5487 0.836 639.7954 211.2844)" class="st18 st25">been there, trying to find our next </text>
<text transform="matrix(0.8468 0.5558 -0.5487 0.836 629.9188 226.3324)" class="st18 st25">place of employment, but not really </text>
<text transform="matrix(0.8468 0.5558 -0.5487 0.836 620.0425 241.38)" class="st18 st25">sure where to start! That’s why this </text>
<text transform="matrix(0.8468 0.5558 -0.5487 0.836 610.1648 256.4279)" class="st18 st25">website was created. Here is provided</text>
<text transform="matrix(0.8468 0.5558 -0.5487 0.836 600.2891 271.4764)" class="st18 st25">a step-by-step solution to meet all of </text>
<text transform="matrix(0.8468 0.5558 -0.5487 0.836 590.4127 286.524)" class="st18 st25">your job-hunting needs, starting with</text>
<text transform="matrix(0.8468 0.5558 -0.5487 0.836 580.5361 301.572)" class="st18 st25">how to find a job and ending with a </text>
<text transform="matrix(0.8468 0.5558 -0.5487 0.836 570.6584 316.6199)" class="st18 st25">success plan for really nailing that </text>
<text transform="matrix(0.8468 0.5558 -0.5487 0.836 560.7827 331.6684)" class="st18 st25">final interview! Let’s get started!</text>
<text transform="matrix(0.8468 0.5558 -0.5487 0.836 552.2778 344.6264)" class="st18 st26"> </text>
<line class="st27" x1="69.9" y1="320.6" x2="127" y2="298.6"/>
<line class="st27" x1="76.9" y1="312.4" x2="118.3" y2="296.1"/>
<line class="st27" x1="76.6" y1="303.7" x2="113.6" y2="289.7"/>
<line class="st27" x1="62" y1="420" x2="94.3" y2="342.7"/>
<line class="st27" x1="79.3" y1="409.8" x2="105.2" y2="346.8"/>
<line class="st27" x1="117.6" y1="334.2" x2="85.5" y2="411.2"/>
<line class="st27" x1="77.4" y1="388.6" x2="83.6" y2="386.7"/>
<line class="st27" x1="90.7" y1="384.6" x2="93.3" y2="383.7"/>
<line class="st27" x1="67.4" y1="391.9" x2="70.8" y2="390.8"/>
<line class="st27" x1="100.5" y1="381.3" x2="169" y2="360.8"/>
<line class="st27" x1="104.4" y1="372.7" x2="152.9" y2="358.1"/>
<line class="st27" x1="94.1" y1="375.9" x2="97.4" y2="375.2"/>
<line class="st27" x1="85.5" y1="378.9" x2="88.1" y2="377.9"/>
<line class="st27" x1="61.4" y1="374.3" x2="70.7" y2="371.6"/>
<line class="st27" x1="76.8" y1="369.5" x2="79.8" y2="368.6"/>
<line class="st27" x1="85.5" y1="366.9" x2="94" y2="364.5"/>
<line class="st27" x1="100" y1="362.2" x2="102.8" y2="361.5"/>
<line class="st27" x1="108.8" y1="359.9" x2="148.8" y2="348"/>
<line class="st27" x1="138.9" y1="311.4" x2="159.7" y2="333.1"/>
<line class="st27" x1="163.8" y1="337.1" x2="174.2" y2="348.1"/>
<line class="st27" x1="141.6" y1="320.9" x2="155.1" y2="334.5"/>
<line class="st27" x1="158.3" y1="337.9" x2="167.7" y2="347.8"/>
<line class="st27" x1="137.2" y1="326.4" x2="146.8" y2="336.6"/>
<line class="st27" x1="150.5" y1="340.5" x2="167.1" y2="357.8"/>
<path class="st28" d="M46.9,587.7"/>
<path class="st28" d="M41.4,570.4"/>
<g>
	<path class="st29" d="M282.4,492.5c0.1-0.1,0.2-0.2,0.4-0.3c0.3-0.8,0.9-1.6,1.6-2.2c-0.7-1.2-1.4-2.5-1.9-3.9
		c-1-2.4-2.7-3.8-4-6.1c-0.7-1.3-1.2-2.4-1.8-3.6L47.1,560.9l6,16.2l228.1-84C281.5,492.8,281.9,492.6,282.4,492.5z"/>
	<path class="st30" d="M58.9,575.3c-7.3,2.7-14.6,5.4-21.8,8c-4.9,1.8-10.2-0.1-11.7-4.3l-0.5-1.5c-1.5-4.2,1.2-9.1,6.1-10.9
		c13.4-3.9,18.4-7.4,20.9-7.7c4.5-0.5,0.5-0.4,0.9-0.3C55.4,558.7,60.6,568.3,58.9,575.3z"/>
	<path class="st31" d="M40.5,580.9c-0.7,1.7-3.2,3.2-4.5,3.2c-4.5,1.7-9.6-0.8-11.3-5.5l0,0c-1.7-4.7,0.5-9.9,5-11.5
		c1-0.8,3.9-1.9,5.6-1C40.2,568.7,41.8,577.8,40.5,580.9z"/>
	<path class="st32" d="M40.3,563.6c0.8,0.8,2,2.2,2.9,4.2s1.1,3.7,1.2,4.9"/>
	<path class="st32" d="M48.5,564.6c0.7,0.9,1.8,2.4,2.5,4.5c0.7,2,0.8,3.8,0.7,5"/>
	<path class="st33" d="M282.5,492.4l19.9-19.6l-25.7,3.2h-0.1c-0.1,1.3-0.3,2.7-0.4,4c0.9,0.8,1.8,1.5,2.7,2.3
		c-0.1,1.3-0.3,2.5-0.4,3.8c0.9,0.7,1.7,1.4,2.6,2.1c0.4,0.2,0.5,0.5,0.6,0.6c0.3,0.7-0.1,1.8-1.1,2.6
		C281.1,491.8,281.8,492.1,282.5,492.4z"/>
	<polygon points="298.5,477.1 294.7,473.3 302,473 	"/>
</g>
</svg>
